RedHatMono-Regular.ufo
<glyph name="exclam" format="2">
  <advance width="600"/>
  <unicode hex="0021"/>
  <outline>
    <contour>
      <point x="271" y="215" type="line"/>
      <point x="328" y="215" type="line"/>
      <point x="337" y="727" type="line"/>
      <point x="262" y="727" type="line"/>
    </contour>
    <contour>
      <point x="300" y="-9" type="curve" smooth="yes"/>
      <point x="337" y="-9"/>
      <point x="365" y="20"/>
      <point x="365" y="56" type="curve" smooth="yes"/>
      <point x="365" y="92"/>
      <point x="337" y="121"/>
      <point x="300" y="121" type="curve" smooth="yes"/>
      <point x="263" y="121"/>
      <point x="235" y="92"/>
      <point x="235" y="56" type="curve" smooth="yes"/>
      <point x="235" y="20"/>
      <point x="263" y="-9"/>
    </contour>
  </outline>
</glyph>
<glyph name="numbersign" format="2">
  <advance width="600"/>
  <unicode hex="0023"/>
  <outline>
    <contour>
      <point x="41" y="0" type="line"/>
      <point x="107" y="0" type="line"/>
      <point x="182" y="219" type="line"/>
      <point x="329" y="219" type="line"/>
      <point x="254" y="0" type="line"/>
      <point x="320" y="0" type="line"/>
      <point x="395" y="219" type="line"/>
      <point x="533" y="219" type="line"/>
      <point x="533" y="277" type="line"/>
      <point x="415" y="277" type="line"/>
      <point x="465" y="423" type="line"/>
      <point x="581" y="423" type="line"/>
      <point x="581" y="481" type="line"/>
      <point x="485" y="481" type="line"/>
      <point x="560" y="700" type="line"/>
      <point x="494" y="700" type="line"/>
      <point x="419" y="481" type="line"/>
      <point x="272" y="481" type="line"/>
      <point x="347" y="700" type="line"/>
      <point x="281" y="700" type="line"/>
      <point x="206" y="481" type="line"/>
      <point x="67" y="481" type="line"/>
      <point x="67" y="423" type="line"/>
      <point x="186" y="423" type="line"/>
      <point x="136" y="277" type="line"/>
      <point x="19" y="277" type="line"/>
      <point x="19" y="219" type="line"/>
      <point x="116" y="219" type="line"/>
    </contour>
    <contour>
      <point x="202" y="277" type="line"/>
      <point x="252" y="423" type="line"/>
      <point x="399" y="423" type="line"/>
      <point x="349" y="277" type="line"/>
    </contour>
  </outline>
</glyph>
<glyph name="percent" format="2">
  <advance width="600"/>
  <unicode hex="0025"/>
  <outline>
    <contour>
      <point x="149" y="413" type="curve" smooth="yes"/>
      <point x="222" y="413"/>
      <point x="270" y="472"/>
      <point x="270" y="559" type="curve" smooth="yes"/>
      <point x="270" y="646"/>
      <point x="222" y="705"/>
      <point x="149" y="705" type="curve" smooth="yes"/>
      <point x="76" y="705"/>
      <point x="28" y="646"/>
      <point x="28" y="559" type="curve" smooth="yes"/>
      <point x="28" y="472"/>
      <point x="76" y="413"/>
    </contour>
    <contour>
      <point x="149" y="458" type="curve" smooth="yes"/>
      <point x="105" y="458"/>
      <point x="77" y="496"/>
      <point x="77" y="559" type="curve" smooth="yes"/>
      <point x="77" y="622"/>
      <point x="105" y="660"/>
      <point x="149" y="660" type="curve" smooth="yes"/>
      <point x="193" y="660"/>
      <point x="221" y="622"/>
      <point x="221" y="559" type="curve" smooth="yes"/>
      <point x="221" y="496"/>
      <point x="193" y="458"/>
    </contour>
    <contour>
      <point x="451" y="-5" type="curve" smooth="yes"/>
      <point x="524" y="-5"/>
      <point x="572" y="54"/>
      <point x="572" y="141" type="curve" smooth="yes"/>
      <point x="572" y="228"/>
      <point x="524" y="287"/>
      <point x="451" y="287" type="curve" smooth="yes"/>
      <point x="378" y="287"/>
      <point x="330" y="228"/>
      <point x="330" y="141" type="curve" smooth="yes"/>
      <point x="330" y="54"/>
      <point x="378" y="-5"/>
    </contour>
    <contour>
      <point x="451" y="40" type="curve" smooth="yes"/>
      <point x="407" y="40"/>
      <point x="379" y="78"/>
      <point x="379" y="141" type="curve" smooth="yes"/>
      <point x="379" y="204"/>
      <point x="407" y="242"/>
      <point x="451" y="242" type="curve" smooth="yes"/>
      <point x="495" y="242"/>
      <point x="523" y="204"/>
      <point x="523" y="141" type="curve" smooth="yes"/>
      <point x="523" y="78"/>
      <point x="495" y="40"/>
    </contour>
    <component base="fraction" xOffset="16"/>
  </outline>
</glyph>
<glyph name="ampersand" format="2">
  <advance width="600"/>
  <unicode hex="0026"/>
  <outline>
    <contour>
      <point x="241" y="-11" type="curve" smooth="yes"/>
      <point x="313" y="-11"/>
      <point x="378" y="21"/>
      <point x="432" y="83" type="curve"/>
      <point x="477" y="42"/>
      <point x="513" y="12"/>
      <point x="545" y="-13" type="curve"/>
      <point x="591" y="38" type="line"/>
      <point x="554" y="68"/>
      <point x="514" y="103"/>
      <point x="473" y="141" type="curve"/>
      <point x="504" y="194"/>
      <point x="527" y="259"/>
      <point x="542" y="335" type="curve"/>
      <point x="474" y="346" type="line"/>
      <point x="463" y="284"/>
      <point x="445" y="231"/>
      <point x="423" y="188" type="curve"/>
      <point x="364" y="245"/>
      <point x="304" y="308"/>
      <point x="254" y="367" type="curve"/>
      <point x="374" y="447"/>
      <point x="413" y="496"/>
      <point x="413" y="566" type="curve" smooth="yes"/>
      <point x="413" y="651"/>
      <point x="350" y="711"/>
      <point x="260" y="711" type="curve" smooth="yes"/>
      <point x="166" y="711"/>
      <point x="97" y="640"/>
      <point x="97" y="543" type="curve" smooth="yes"/>
      <point x="97" y="492"/>
      <point x="119" y="435"/>
      <point x="159" y="377" type="curve"/>
      <point x="76" y="320"/>
      <point x="40" y="261"/>
      <point x="40" y="183" type="curve" smooth="yes"/>
      <point x="40" y="66"/>
      <point x="120" y="-11"/>
    </contour>
    <contour>
      <point x="167" y="545" type="curve" smooth="yes"/>
      <point x="167" y="607"/>
      <point x="205" y="651"/>
      <point x="258" y="651" type="curve" smooth="yes"/>
      <point x="306" y="651"/>
      <point x="343" y="613"/>
      <point x="343" y="564" type="curve" smooth="yes"/>
      <point x="343" y="509"/>
      <point x="312" y="473"/>
      <point x="218" y="414" type="curve"/>
      <point x="183" y="464"/>
      <point x="167" y="505"/>
    </contour>
    <contour>
      <point x="110" y="185" type="curve" smooth="yes"/>
      <point x="110" y="237"/>
      <point x="137" y="281"/>
      <point x="196" y="327" type="curve"/>
      <point x="247" y="265"/>
      <point x="311" y="198"/>
      <point x="384" y="128" type="curve"/>
      <point x="345" y="79"/>
      <point x="296" y="52"/>
      <point x="244" y="52" type="curve" smooth="yes"/>
      <point x="163" y="52"/>
      <point x="110" y="105"/>
    </contour>
  </outline>
</glyph>
<glyph name="parenleft" format="2">
  <advance width="600"/>
  <unicode hex="0028"/>
  <outline>
    <contour>
      <point x="451" y="-222" type="curve"/>
      <point x="482" y="-165" type="line"/>
      <point x="321" y="-89"/>
      <point x="233" y="58"/>
      <point x="233" y="246" type="curve" smooth="yes"/>
      <point x="233" y="434"/>
      <point x="321" y="581"/>
      <point x="482" y="657" type="curve"/>
      <point x="451" y="714" type="line"/>
      <point x="281" y="635"/>
      <point x="163" y="461"/>
      <point x="163" y="246" type="curve" smooth="yes"/>
      <point x="163" y="31"/>
      <point x="281" y="-143"/>
    </contour>
  </outline>
</glyph>
<glyph name="asterisk" format="2">
  <advance width="600"/>
  <unicode hex="002A"/>
  <outline>
    <contour>
      <point x="273" y="341" type="line"/>
      <point x="325" y="341" type="line"/>
      <point x="323" y="479" type="line"/>
      <point x="435" y="406" type="line"/>
      <point x="465" y="451" type="line"/>
      <point x="346" y="524" type="line"/>
      <point x="461" y="596" type="line"/>
      <point x="431" y="640" type="line"/>
      <point x="324" y="570" type="line"/>
      <point x="325" y="700" type="line"/>
      <point x="273" y="700" type="line"/>
      <point x="274" y="569" type="line"/>
      <point x="167" y="640" type="line"/>
      <point x="139" y="596" type="line"/>
      <point x="253" y="524" type="line"/>
      <point x="135" y="451" type="line"/>
      <point x="164" y="406" type="line"/>
      <point x="275" y="479" type="line"/>
    </contour>
  </outline>
</glyph>
<glyph name="plus" format="2">
  <advance width="600"/>
  <unicode hex="002B"/>
  <outline>
    <contour>
      <point x="269" y="145" type="line"/>
      <point x="331" y="145" type="line"/>
      <point x="331" y="326" type="line"/>
      <point x="498" y="326" type="line"/>
      <point x="498" y="386" type="line"/>
      <point x="331" y="386" type="line"/>
      <point x="331" y="567" type="line"/>
      <point x="269" y="567" type="line"/>
      <point x="269" y="386" type="line"/>
      <point x="102" y="386" type="line"/>
      <point x="102" y="326" type="line"/>
      <point x="269" y="326" type="line"/>
    </contour>
  </outline>
</glyph>
<glyph name="comma" format="2">
  <advance width="600"/>
  <unicode hex="002C"/>
  <outline>
    <contour>
      <point x="207" y="-157" type="line"/>
      <point x="264" y="-157" type="line"/>
      <point x="355" y="74" type="line"/>
      <point x="262" y="74" type="line"/>
    </contour>
  </outline>
</glyph>
<glyph name="hyphen" format="2">
  <advance width="600"/>
  <unicode hex="002D"/>
  <outline>
    <contour>
      <point x="134" y="250" type="line"/>
      <point x="466" y="250" type="line"/>
      <point x="466" y="310" type="line"/>
      <point x="134" y="310" type="line"/>
    </contour>
  </outline>
</glyph>
<glyph name="period" format="2">
  <advance width="600"/>
  <unicode hex="002E"/>
  <outline>
    <contour>
      <point x="300" y="-9" type="curve" smooth="yes"/>
      <point x="337" y="-9"/>
      <point x="365" y="20"/>
      <point x="365" y="56" type="curve" smooth="yes"/>
      <point x="365" y="92"/>
      <point x="337" y="121"/>
      <point x="300" y="121" type="curve" smooth="yes"/>
      <point x="263" y="121"/>
      <point x="235" y="92"/>
      <point x="235" y="56" type="curve" smooth="yes"/>
      <point x="235" y="20"/>
      <point x="263" y="-9"/>
    </contour>
  </outline>
</glyph>
<glyph name="zero" format="2">
  <advance width="600"/>
  <unicode hex="0030"/>
  <outline>
    <contour>
      <point x="300" y="-11" type="curve" smooth="yes"/>
      <point x="451" y="-11"/>
      <point x="558" y="127"/>
      <point x="558" y="350" type="curve" smooth="yes"/>
      <point x="558" y="573"/>
      <point x="451" y="711"/>
      <point x="300" y="711" type="curve" smooth="yes"/>
      <point x="149" y="711"/>
      <point x="42" y="573"/>
      <point x="42" y="350" type="curve" smooth="yes"/>
      <point x="42" y="127"/>
      <point x="149" y="-11"/>
    </contour>
    <contour>
      <point x="115" y="350" type="curve" smooth="yes"/>
      <point x="115" y="530"/>
      <point x="188" y="646"/>
      <point x="300" y="646" type="curve" smooth="yes"/>
      <point x="337" y="646"/>
      <point x="369" y="634"/>
      <point x="396" y="611" type="curve"/>
      <point x="158" y="147" type="line"/>
      <point x="131" y="198"/>
      <point x="115" y="267"/>
    </contour>
    <contour>
      <point x="300" y="54" type="curve" smooth="yes"/>
      <point x="263" y="54"/>
      <point x="231" y="66"/>
      <point x="204" y="89" type="curve"/>
      <point x="442" y="553" type="line"/>
      <point x="469" y="502"/>
      <point x="485" y="433"/>
      <point x="485" y="350" type="curve" smooth="yes"/>
      <point x="485" y="170"/>
      <point x="412" y="54"/>
    </contour>
  </outline>
</glyph>
<glyph name="one" format="2">
  <advance width="600"/>
  <unicode hex="0031"/>
  <guideline x="74" y="156" angle="90.0" identifier="zWHZDg1UEt"/>
  <outline>
    <contour>
      <point x="84" y="0" type="line"/>
      <point x="535" y="0" type="line"/>
      <point x="535" y="63" type="line"/>
      <point x="333" y="63" type="line"/>
      <point x="333" y="700" type="line"/>
      <point x="288" y="700" type="line"/>
      <point x="84" y="610" type="line"/>
      <point x="84" y="544" type="line"/>
      <point x="261" y="622" type="line"/>
      <point x="261" y="63" type="line"/>
      <point x="84" y="63" type="line"/>
    </contour>
  </outline>
</glyph>
<glyph name="two" format="2">
  <advance width="600"/>
  <unicode hex="0032"/>
  <outline>
    <contour>
      <point x="74" y="0" type="line"/>
      <point x="525" y="0" type="line"/>
      <point x="525" y="63" type="line"/>
      <point x="164" y="62" type="line"/>
      <point x="403" y="321" type="line" smooth="yes"/>
      <point x="489" y="415"/>
      <point x="510" y="459"/>
      <point x="510" y="529" type="curve" smooth="yes"/>
      <point x="510" y="635"/>
      <point x="419" y="711"/>
      <point x="293" y="711" type="curve" smooth="yes"/>
      <point x="211" y="711"/>
      <point x="138" y="679"/>
      <point x="65" y="612" type="curve"/>
      <point x="107" y="562" type="line"/>
      <point x="176" y="624"/>
      <point x="226" y="647"/>
      <point x="292" y="647" type="curve" smooth="yes"/>
      <point x="377" y="647"/>
      <point x="439" y="595"/>
      <point x="439" y="525" type="curve" smooth="yes"/>
      <point x="439" y="471"/>
      <point x="420" y="431"/>
      <point x="354" y="359" type="curve" smooth="yes"/>
      <point x="74" y="53" type="line"/>
    </contour>
  </outline>
</glyph>
<glyph name="three" format="2">
  <advance width="600"/>
  <unicode hex="0033"/>
  <outline>
    <contour>
      <point x="286" y="-11" type="curve" smooth="yes"/>
      <point x="428" y="-11"/>
      <point x="531" y="74"/>
      <point x="531" y="191" type="curve" smooth="yes"/>
      <point x="531" y="272"/>
      <point x="468" y="339"/>
      <point x="374" y="360" type="curve"/>
      <point x="453" y="383"/>
      <point x="505" y="445"/>
      <point x="505" y="519" type="curve" smooth="yes"/>
      <point x="505" y="629"/>
      <point x="410" y="711"/>
      <point x="282" y="711" type="curve" smooth="yes"/>
      <point x="193" y="711"/>
      <point x="113" y="676"/>
      <point x="50" y="610" type="curve"/>
      <point x="98" y="562" type="line"/>
      <point x="157" y="623"/>
      <point x="209" y="647"/>
      <point x="281" y="647" type="curve" smooth="yes"/>
      <point x="367" y="647"/>
      <point x="433" y="589"/>
      <point x="433" y="515" type="curve" smooth="yes"/>
      <point x="433" y="440"/>
      <point x="381" y="389"/>
      <point x="305" y="389" type="curve" smooth="yes"/>
      <point x="225" y="389" type="line"/>
      <point x="225" y="327" type="line"/>
      <point x="308" y="327" type="line" smooth="yes"/>
      <point x="396" y="327"/>
      <point x="459" y="271"/>
      <point x="459" y="193" type="curve" smooth="yes"/>
      <point x="459" y="110"/>
      <point x="387" y="52"/>
      <point x="285" y="52" type="curve" smooth="yes"/>
      <point x="206" y="52"/>
      <point x="148" y="76"/>
      <point x="89" y="135" type="curve"/>
      <point x="41" y="88" type="line"/>
      <point x="105" y="23"/>
      <point x="190" y="-11"/>
    </contour>
  </outline>
</glyph>
<glyph name="six" format="2">
  <advance width="600"/>
  <unicode hex="0036"/>
  <outline>
    <contour>
      <point x="321" y="-10" type="curve" smooth="yes"/>
      <point x="457" y="-10"/>
      <point x="558" y="88"/>
      <point x="558" y="221" type="curve" smooth="yes"/>
      <point x="558" y="347"/>
      <point x="460" y="439"/>
      <point x="324" y="439" type="curve" smooth="yes"/>
      <point x="247" y="439"/>
      <point x="171" y="400"/>
      <point x="119" y="333" type="curve"/>
      <point x="122" y="528"/>
      <point x="211" y="646"/>
      <point x="355" y="646" type="curve" smooth="yes"/>
      <point x="401" y="646"/>
      <point x="448" y="632"/>
      <point x="489" y="608" type="curve"/>
      <point x="525" y="664" type="line"/>
      <point x="480" y="694"/>
      <point x="419" y="711"/>
      <point x="361" y="711" type="curve" smooth="yes"/>
      <point x="172" y="711"/>
      <point x="47" y="558"/>
      <point x="47" y="326" type="curve" smooth="yes"/>
      <point x="47" y="129"/>
      <point x="160" y="-10"/>
    </contour>
    <contour>
      <point x="314" y="380" type="curve" smooth="yes"/>
      <point x="415" y="380"/>
      <point x="486" y="313"/>
      <point x="486" y="219" type="curve" smooth="yes"/>
      <point x="486" y="124"/>
      <point x="415" y="53"/>
      <point x="320" y="53" type="curve" smooth="yes"/>
      <point x="213" y="53"/>
      <point x="136" y="142"/>
      <point x="121" y="277" type="curve"/>
      <point x="170" y="341"/>
      <point x="241" y="380"/>
    </contour>
  </outline>
</glyph>
<glyph name="question" format="2">
  <advance width="600"/>
  <unicode hex="003F"/>
  <outline>
    <contour>
      <point x="242" y="215" type="curve"/>
      <point x="305" y="215" type="line"/>
      <point x="284" y="370"/>
      <point x="508" y="357"/>
      <point x="508" y="535" type="curve" smooth="yes"/>
      <point x="508" y="636"/>
      <point x="420" y="711"/>
      <point x="303" y="711" type="curve" smooth="yes"/>
      <point x="215" y="711"/>
      <point x="137" y="669"/>
      <point x="83" y="593" type="curve"/>
      <point x="139" y="555" type="line"/>
      <point x="182" y="614"/>
      <point x="237" y="645"/>
      <point x="300" y="645" type="curve" smooth="yes"/>
      <point x="377" y="645"/>
      <point x="437" y="597"/>
      <point x="437" y="534" type="curve" smooth="yes"/>
      <point x="437" y="390"/>
      <point x="227" y="417"/>
    </contour>
    <contour>
      <point x="274" y="-9" type="curve" smooth="yes"/>
      <point x="311" y="-9"/>
      <point x="339" y="20"/>
      <point x="339" y="56" type="curve" smooth="yes"/>
      <point x="339" y="92"/>
      <point x="311" y="121"/>
      <point x="274" y="121" type="curve" smooth="yes"/>
      <point x="237" y="121"/>
      <point x="209" y="92"/>
      <point x="209" y="56" type="curve" smooth="yes"/>
      <point x="209" y="20"/>
      <point x="237" y="-9"/>
    </contour>
  </outline>
</glyph>
<glyph name="A" format="2">
  <advance width="600"/>
  <unicode hex="0041"/>
  <anchor x="300" y="700" name="top"/>
  <anchor x="584" y="0" name="bottom"/>
  <outline>
    <contour>
      <point x="16" y="0" type="line"/>
      <point x="95" y="0" type="line"/>
      <point x="158" y="195" type="line"/>
      <point x="439" y="195" type="line"/>
      <point x="503" y="0" type="line"/>
      <point x="584" y="0" type="line"/>
      <point x="348" y="700" type="line"/>
      <point x="251" y="700" type="line"/>
    </contour>
    <contour>
      <point x="178" y="256" type="line"/>
      <point x="298" y="626" type="line"/>
      <point x="419" y="256" type="line"/>
    </contour>
  </outline>
</glyph>
<glyph name="B" format="2">
  <advance width="600"/>
  <unicode hex="0042"/>
  <outline>
    <contour>
      <point x="95" y="0" type="line"/>
      <point x="319" y="0" type="line" smooth="yes"/>
      <point x="456" y="0"/>
      <point x="546" y="77"/>
      <point x="546" y="194" type="curve" smooth="yes"/>
      <point x="546" y="280"/>
      <point x="488" y="343"/>
      <point x="395" y="364" type="curve"/>
      <point x="471" y="387"/>
      <point x="519" y="445"/>
      <point x="519" y="522" type="curve" smooth="yes"/>
      <point x="519" y="630"/>
      <point x="436" y="700"/>
      <point x="308" y="700" type="curve" smooth="yes"/>
      <point x="95" y="700" type="line"/>
    </contour>
    <contour>
      <point x="172" y="394" type="line"/>
      <point x="172" y="634" type="line"/>
      <point x="302" y="634" type="line" smooth="yes"/>
      <point x="387" y="634"/>
      <point x="442" y="587"/>
      <point x="442" y="514" type="curve" smooth="yes"/>
      <point x="442" y="441"/>
      <point x="387" y="394"/>
      <point x="302" y="394" type="curve" smooth="yes"/>
    </contour>
    <contour>
      <point x="172" y="66" type="line"/>
      <point x="172" y="331" type="line"/>
      <point x="311" y="331" type="line" smooth="yes"/>
      <point x="407" y="331"/>
      <point x="468" y="279"/>
      <point x="468" y="199" type="curve" smooth="yes"/>
      <point x="468" y="118"/>
      <point x="406" y="66"/>
      <point x="311" y="66" type="curve" smooth="yes"/>
    </contour>
  </outline>
</glyph>
<glyph name="C" format="2">
  <advance width="600"/>
  <unicode hex="0043"/>
  <anchor x="309" y="700" name="top"/>
  <anchor x="304" y="0" name="bottom"/>
  <outline>
    <contour>
      <point x="306" y="-11" type="curve" smooth="yes"/>
      <point x="428" y="-11"/>
      <point x="520" y="69"/>
      <point x="558" y="204" type="curve"/>
      <point x="485" y="227" type="line"/>
      <point x="458" y="119"/>
      <point x="388" y="59"/>
      <point x="306" y="59" type="curve" smooth="yes"/>
      <point x="201" y="59"/>
      <point x="119" y="166"/>
      <point x="119" y="350" type="curve" smooth="yes"/>
      <point x="119" y="534"/>
      <point x="201" y="641"/>
      <point x="306" y="641" type="curve" smooth="yes"/>
      <point x="388" y="641"/>
      <point x="458" y="581"/>
      <point x="485" y="473" type="curve"/>
      <point x="558" y="496" type="line"/>
      <point x="520" y="631"/>
      <point x="428" y="711"/>
      <point x="306" y="711" type="curve" smooth="yes"/>
      <point x="165" y="711"/>
      <point x="41" y="582"/>
      <point x="41" y="350" type="curve" smooth="yes"/>
      <point x="41" y="118"/>
      <point x="165" y="-11"/>
    </contour>
  </outline>
</glyph>
<glyph name="D" format="2">
  <advance width="600"/>
  <unicode hex="0044"/>
  <anchor x="300" y="700" name="top"/>
  <outline>
    <contour>
      <point x="164" y="67" type="line"/>
      <point x="164" y="633" type="line"/>
      <point x="270" y="633" type="line" smooth="yes"/>
      <point x="396" y="633"/>
      <point x="480" y="520"/>
      <point x="480" y="350" type="curve" smooth="yes"/>
      <point x="480" y="180"/>
      <point x="396" y="67"/>
      <point x="270" y="67" type="curve" smooth="yes"/>
    </contour>
    <contour>
      <point x="87" y="0" type="line"/>
      <point x="280" y="0" type="line" smooth="yes"/>
      <point x="444" y="0"/>
      <point x="558" y="143"/>
      <point x="558" y="350" type="curve" smooth="yes"/>
      <point x="558" y="557"/>
      <point x="444" y="700"/>
      <point x="280" y="700" type="curve" smooth="yes"/>
      <point x="87" y="700" type="line"/>
    </contour>
  </outline>
</glyph>
<glyph name="G" format="2">
  <advance width="600"/>
  <unicode hex="0047"/>
  <anchor x="308" y="700" name="top"/>
  <anchor x="309" y="0" name="bottom"/>
  <outline>
    <contour>
      <point x="311" y="-11" type="curve" smooth="yes"/>
      <point x="465" y="-11"/>
      <point x="568" y="116"/>
      <point x="568" y="335" type="curve" smooth="yes"/>
      <point x="568" y="366" type="line"/>
      <point x="330" y="366" type="line"/>
      <point x="330" y="299" type="line"/>
      <point x="491" y="299" type="line"/>
      <point x="484" y="154"/>
      <point x="415" y="59"/>
      <point x="311" y="59" type="curve" smooth="yes"/>
      <point x="201" y="59"/>
      <point x="119" y="166"/>
      <point x="119" y="350" type="curve" smooth="yes"/>
      <point x="119" y="534"/>
      <point x="201" y="641"/>
      <point x="306" y="641" type="curve" smooth="yes"/>
      <point x="388" y="641"/>
      <point x="458" y="581"/>
      <point x="485" y="473" type="curve"/>
      <point x="558" y="496" type="line"/>
      <point x="520" y="631"/>
      <point x="428" y="711"/>
      <point x="306" y="711" type="curve" smooth="yes"/>
      <point x="165" y="711"/>
      <point x="41" y="582"/>
      <point x="41" y="350" type="curve" smooth="yes"/>
      <point x="41" y="118"/>
      <point x="165" y="-11"/>
    </contour>
  </outline>
</glyph>
<glyph name="H" format="2">
  <advance width="600"/>
  <unicode hex="0048"/>
  <anchor x="300" y="700" name="top"/>
  <outline>
    <contour>
      <point x="72" y="0" type="line"/>
      <point x="149" y="0" type="line"/>
      <point x="149" y="319" type="line"/>
      <point x="451" y="319" type="line"/>
      <point x="451" y="0" type="line"/>
      <point x="528" y="0" type="line"/>
      <point x="528" y="700" type="line"/>
      <point x="451" y="700" type="line"/>
      <point x="451" y="386" type="line"/>
      <point x="149" y="386" type="line"/>
      <point x="149" y="700" type="line"/>
      <point x="72" y="700" type="line"/>
    </contour>
  </outline>
</glyph>
<glyph name="I" format="2">
  <advance width="600"/>
  <unicode hex="0049"/>
  <anchor x="300" y="700" name="top"/>
  <anchor x="520" y="0" name="bottom"/>
  <outline>
    <contour>
      <point x="80" y="0" type="line"/>
      <point x="520" y="0" type="line"/>
      <point x="520" y="67" type="line"/>
      <point x="339" y="67" type="line"/>
      <point x="339" y="633" type="line"/>
      <point x="520" y="633" type="line"/>
      <point x="520" y="700" type="line"/>
      <point x="80" y="700" type="line"/>
      <point x="80" y="633" type="line"/>
      <point x="262" y="633" type="line"/>
      <point x="262" y="67" type="line"/>
      <point x="80" y="67" type="line"/>
    </contour>
  </outline>
</glyph>
<glyph name="J" format="2">
  <advance width="600"/>
  <unicode hex="004A"/>
  <anchor x="479" y="700" name="top"/>
  <outline>
    <contour>
      <point x="273" y="-11" type="curve" smooth="yes"/>
      <point x="422" y="-11"/>
      <point x="516" y="95"/>
      <point x="516" y="264" type="curve" smooth="yes"/>
      <point x="516" y="700" type="line"/>
      <point x="439" y="700" type="line"/>
      <point x="439" y="265" type="line" smooth="yes"/>
      <point x="439" y="139"/>
      <point x="374" y="59"/>
      <point x="274" y="59" type="curve" smooth="yes"/>
      <point x="190" y="59"/>
      <point x="132" y="106"/>
      <point x="99" y="196" type="curve"/>
      <point x="29" y="168" type="line"/>
      <point x="68" y="55"/>
      <point x="157" y="-11"/>
    </contour>
  </outline>
</glyph>
<glyph name="K" format="2">
  <advance width="600"/>
  <unicode hex="004B"/>
  <anchor x="319" y="0" name="bottom"/>
  <outline>
    <contour>
      <point x="99" y="0" type="line"/>
      <point x="176" y="0" type="line"/>
      <point x="176" y="333" type="line"/>
      <point x="477" y="0" type="line"/>
      <point x="582" y="0" type="line"/>
      <point x="253" y="356" type="line"/>
      <point x="574" y="700" type="line"/>
      <point x="476" y="700" type="line"/>
      <point x="176" y="370" type="line"/>
      <point x="176" y="700" type="line"/>
      <point x="99" y="700" type="line"/>
    </contour>
  </outline>
</glyph>
<glyph name="M" format="2">
  <advance width="600"/>
  <unicode hex="004D"/>
  <outline>
    <contour>
      <point x="59" y="0" type="line"/>
      <point x="128" y="0" type="line"/>
      <point x="128" y="605" type="line"/>
      <point x="299" y="210" type="line"/>
      <point x="470" y="605" type="line"/>
      <point x="470" y="0" type="line"/>
      <point x="541" y="0" type="line"/>
      <point x="541" y="700" type="line"/>
      <point x="446" y="700" type="line"/>
      <point x="300" y="366" type="line"/>
      <point x="154" y="700" type="line"/>
      <point x="59" y="700" type="line"/>
    </contour>
  </outline>
</glyph>
<glyph name="N" format="2">
  <advance width="600"/>
  <unicode hex="004E"/>
  <anchor x="300" y="700" name="top"/>
  <anchor x="300" y="0" name="bottom"/>
  <outline>
    <contour>
      <point x="76" y="0" type="line"/>
      <point x="146" y="0" type="line"/>
      <point x="144" y="587" type="line"/>
      <point x="446" y="0" type="line"/>
      <point x="524" y="0" type="line"/>
      <point x="524" y="700" type="line"/>
      <point x="454" y="700" type="line"/>
      <point x="456" y="130" type="line"/>
      <point x="164" y="700" type="line"/>
      <point x="76" y="700" type="line"/>
    </contour>
  </outline>
</glyph>
<glyph name="O" format="2">
  <advance width="600"/>
  <unicode hex="004F"/>
  <anchor x="300" y="700" name="top"/>
  <outline>
    <contour>
      <point x="300" y="-11" type="curve" smooth="yes"/>
      <point x="440" y="-11"/>
      <point x="563" y="118"/>
      <point x="563" y="350" type="curve" smooth="yes"/>
      <point x="563" y="582"/>
      <point x="440" y="711"/>
      <point x="300" y="711" type="curve" smooth="yes"/>
      <point x="160" y="711"/>
      <point x="37" y="582"/>
      <point x="37" y="350" type="curve" smooth="yes"/>
      <point x="37" y="118"/>
      <point x="160" y="-11"/>
    </contour>
    <contour>
      <point x="300" y="59" type="curve" smooth="yes"/>
      <point x="196" y="59"/>
      <point x="115" y="166"/>
      <point x="115" y="350" type="curve" smooth="yes"/>
      <point x="115" y="534"/>
      <point x="196" y="641"/>
      <point x="300" y="641" type="curve" smooth="yes"/>
      <point x="404" y="641"/>
      <point x="485" y="534"/>
      <point x="485" y="350" type="curve" smooth="yes"/>
      <point x="485" y="166"/>
      <point x="404" y="59"/>
    </contour>
  </outline>
</glyph>
<glyph name="P" format="2">
  <advance width="600"/>
  <unicode hex="0050"/>
  <outline>
    <contour>
      <point x="95" y="0" type="line"/>
      <point x="172" y="0" type="line"/>
      <point x="172" y="286" type="line"/>
      <point x="324" y="286" type="line" smooth="yes"/>
      <point x="460" y="286"/>
      <point x="547" y="368"/>
      <point x="547" y="493" type="curve" smooth="yes"/>
      <point x="547" y="618"/>
      <point x="460" y="700"/>
      <point x="324" y="700" type="curve" smooth="yes"/>
      <point x="95" y="700" type="line"/>
    </contour>
    <contour>
      <point x="172" y="353" type="line"/>
      <point x="172" y="633" type="line"/>
      <point x="315" y="633" type="line" smooth="yes"/>
      <point x="412" y="633"/>
      <point x="470" y="580"/>
      <point x="470" y="493" type="curve" smooth="yes"/>
      <point x="470" y="406"/>
      <point x="412" y="353"/>
      <point x="315" y="353" type="curve" smooth="yes"/>
    </contour>
  </outline>
</glyph>
<glyph name="Q" format="2">
  <advance width="600"/>
  <unicode hex="0051"/>
  <outline>
    <contour>
      <point x="469" y="-16" type="line"/>
      <point x="548" y="-5" type="line"/>
      <point x="479" y="77" type="line"/>
      <point x="530" y="138"/>
      <point x="563" y="230"/>
      <point x="563" y="350" type="curve" smooth="yes"/>
      <point x="563" y="582"/>
      <point x="440" y="711"/>
      <point x="300" y="711" type="curve" smooth="yes"/>
      <point x="160" y="711"/>
      <point x="37" y="582"/>
      <point x="37" y="350" type="curve" smooth="yes"/>
      <point x="37" y="118"/>
      <point x="160" y="-11"/>
      <point x="300" y="-11" type="curve" smooth="yes"/>
      <point x="346" y="-11"/>
      <point x="391" y="3"/>
      <point x="430" y="31" type="curve"/>
    </contour>
    <contour>
      <point x="300" y="59" type="curve" smooth="yes"/>
      <point x="196" y="59"/>
      <point x="115" y="166"/>
      <point x="115" y="350" type="curve" smooth="yes"/>
      <point x="115" y="534"/>
      <point x="196" y="641"/>
      <point x="300" y="641" type="curve" smooth="yes"/>
      <point x="404" y="641"/>
      <point x="485" y="534"/>
      <point x="485" y="350" type="curve" smooth="yes"/>
      <point x="485" y="257"/>
      <point x="465" y="184"/>
      <point x="431" y="135" type="curve"/>
      <point x="351" y="230" type="line"/>
      <point x="272" y="218" type="line"/>
      <point x="384" y="85" type="line"/>
      <point x="359" y="68"/>
      <point x="330" y="59"/>
    </contour>
  </outline>
</glyph>
<glyph name="R" format="2">
  <advance width="600"/>
  <unicode hex="0052"/>
  <anchor x="300" y="700" name="top"/>
  <anchor x="309" y="0" name="bottom"/>
  <outline>
    <contour>
      <point x="102" y="0" type="line"/>
      <point x="179" y="0" type="line"/>
      <point x="179" y="299" type="line"/>
      <point x="319" y="299" type="line"/>
      <point x="469" y="0" type="line"/>
      <point x="554" y="0" type="line"/>
      <point x="397" y="309" type="line"/>
      <point x="486" y="335"/>
      <point x="542" y="405"/>
      <point x="542" y="498" type="curve" smooth="yes"/>
      <point x="542" y="619"/>
      <point x="453" y="700"/>
      <point x="319" y="700" type="curve" smooth="yes"/>
      <point x="102" y="700" type="line"/>
    </contour>
    <contour>
      <point x="179" y="363" type="line"/>
      <point x="179" y="633" type="line"/>
      <point x="313" y="633" type="line" smooth="yes"/>
      <point x="405" y="633"/>
      <point x="465" y="580"/>
      <point x="465" y="497" type="curve" smooth="yes"/>
      <point x="465" y="416"/>
      <point x="405" y="363"/>
      <point x="313" y="363" type="curve" smooth="yes"/>
    </contour>
  </outline>
</glyph>
<glyph name="S" format="2">
  <advance width="600"/>
  <unicode hex="0053"/>
  <anchor x="292" y="700" name="top"/>
  <anchor x="304" y="0" name="bottom"/>
  <outline>
    <contour>
      <point x="310" y="-11" type="curve" smooth="yes"/>
      <point x="447" y="-11"/>
      <point x="547" y="76"/>
      <point x="547" y="193" type="curve" smooth="yes"/>
      <point x="547" y="458"/>
      <point x="149" y="327"/>
      <point x="149" y="532" type="curve" smooth="yes"/>
      <point x="149" y="597"/>
      <point x="209" y="646"/>
      <point x="294" y="646" type="curve" smooth="yes"/>
      <point x="359" y="646"/>
      <point x="427" y="619"/>
      <point x="500" y="563" type="curve"/>
      <point x="540" y="623" type="line"/>
      <point x="452" y="685"/>
      <point x="378" y="711"/>
      <point x="293" y="711" type="curve" smooth="yes"/>
      <point x="164" y="711"/>
      <point x="75" y="634"/>
      <point x="75" y="524" type="curve" smooth="yes"/>
      <point x="75" y="262"/>
      <point x="470" y="389"/>
      <point x="470" y="189" type="curve" smooth="yes"/>
      <point x="470" y="112"/>
      <point x="403" y="55"/>
      <point x="312" y="55" type="curve" smooth="yes"/>
      <point x="238" y="55"/>
      <point x="181" y="82"/>
      <point x="99" y="157" type="curve"/>
      <point x="53" y="99" type="line"/>
      <point x="137" y="23"/>
      <point x="217" y="-11"/>
    </contour>
  </outline>
</glyph>
<glyph name="T" format="2">
  <advance width="600"/>
  <unicode hex="0054"/>
  <anchor x="300" y="700" name="top"/>
  <anchor x="300" y="0" name="bottom"/>
  <outline>
    <contour>
      <point x="262" y="0" type="line"/>
      <point x="339" y="0" type="line"/>
      <point x="339" y="633" type="line"/>
      <point x="570" y="633" type="line"/>
      <point x="570" y="700" type="line"/>
      <point x="30" y="700" type="line"/>
      <point x="30" y="633" type="line"/>
      <point x="262" y="633" type="line"/>
    </contour>
  </outline>
</glyph>
<glyph name="V" format="2">
  <advance width="600"/>
  <unicode hex="0056"/>
  <outline>
    <contour>
      <point x="250" y="0" type="line"/>
      <point x="348" y="0" type="line"/>
      <point x="584" y="699" type="line"/>
      <point x="505" y="699" type="line"/>
      <point x="301" y="72" type="line"/>
      <point x="97" y="700" type="line"/>
      <point x="16" y="700" type="line"/>
    </contour>
  </outline>
</glyph>
<glyph name="W" format="2">
  <advance width="600"/>
  <unicode hex="0057"/>
  <guideline x="302" y="700" angle="90.0" identifier="IlOupJizjO"/>
  <anchor x="302" y="700" name="top"/>
  <outline>
    <contour>
      <point x="110" y="0" type="line"/>
      <point x="183" y="0" type="line"/>
      <point x="301" y="576" type="line"/>
      <point x="418" y="0" type="line"/>
      <point x="491" y="0" type="line"/>
      <point x="575" y="700" type="line"/>
      <point x="506" y="700" type="line"/>
      <point x="447" y="161" type="line"/>
      <point x="336" y="700" type="line"/>
      <point x="267" y="700" type="line"/>
      <point x="156" y="159" type="line"/>
      <point x="97" y="700" type="line"/>
      <point x="25" y="700" type="line"/>
    </contour>
  </outline>
</glyph>
<glyph name="grave" format="2">
  <advance width="600"/>
  <unicode hex="0060"/>
  <outline>
    <contour>
      <point x="316" y="604" type="line"/>
      <point x="387" y="604" type="line"/>
      <point x="275" y="726" type="line"/>
      <point x="172" y="726" type="line"/>
    </contour>
  </outline>
</glyph>
<glyph name="b" format="2">
  <advance width="600"/>
  <unicode hex="0062"/>
  <outline>
    <contour>
      <point x="91" y="0" type="line"/>
      <point x="164" y="0" type="line"/>
      <point x="164" y="65" type="line"/>
      <point x="201" y="18"/>
      <point x="256" y="-7"/>
      <point x="320" y="-7" type="curve" smooth="yes"/>
      <point x="447" y="-7"/>
      <point x="545" y="103"/>
      <point x="545" y="243" type="curve" smooth="yes"/>
      <point x="545" y="384"/>
      <point x="445" y="494"/>
      <point x="316" y="494" type="curve" smooth="yes"/>
      <point x="256" y="494"/>
      <point x="203" y="470"/>
      <point x="164" y="426" type="curve"/>
      <point x="164" y="737" type="line"/>
      <point x="91" y="722" type="line"/>
    </contour>
    <contour>
      <point x="302" y="57" type="curve" smooth="yes"/>
      <point x="245" y="57"/>
      <point x="195" y="80"/>
      <point x="164" y="122" type="curve"/>
      <point x="164" y="364" type="line"/>
      <point x="196" y="405"/>
      <point x="247" y="430"/>
      <point x="302" y="430" type="curve" smooth="yes"/>
      <point x="400" y="430"/>
      <point x="473" y="351"/>
      <point x="473" y="244" type="curve" smooth="yes"/>
      <point x="473" y="137"/>
      <point x="400" y="57"/>
    </contour>
  </outline>
</glyph>
<glyph name="c" format="2">
  <advance width="600"/>
  <unicode hex="0063"/>
  <anchor x="305" y="488" name="top"/>
  <anchor x="306" y="0" name="bottom"/>
  <outline>
    <contour>
      <point x="308" y="-10" type="curve" smooth="yes"/>
      <point x="398" y="-10"/>
      <point x="475" y="33"/>
      <point x="518" y="101" type="curve"/>
      <point x="459" y="138" type="line"/>
      <point x="428" y="87"/>
      <point x="373" y="55"/>
      <point x="308" y="55" type="curve" smooth="yes"/>
      <point x="208" y="55"/>
      <point x="135" y="134"/>
      <point x="135" y="243" type="curve" smooth="yes"/>
      <point x="135" y="352"/>
      <point x="208" y="431"/>
      <point x="308" y="431" type="curve" smooth="yes"/>
      <point x="373" y="431"/>
      <point x="428" y="399"/>
      <point x="459" y="348" type="curve"/>
      <point x="518" y="385" type="line"/>
      <point x="475" y="453"/>
      <point x="398" y="496"/>
      <point x="308" y="496" type="curve" smooth="yes"/>
      <point x="170" y="496"/>
      <point x="63" y="387"/>
      <point x="63" y="243" type="curve" smooth="yes"/>
      <point x="63" y="99"/>
      <point x="170" y="-10"/>
    </contour>
  </outline>
</glyph>
<glyph name="e" format="2">
  <advance width="600"/>
  <unicode hex="0065"/>
  <anchor x="300" y="488" name="top"/>
  <anchor x="385" y="0" name="bottom"/>
  <outline>
    <contour>
      <point x="312" y="-10" type="curve" smooth="yes"/>
      <point x="389" y="-10"/>
      <point x="457" y="17"/>
      <point x="509" y="71" type="curve"/>
      <point x="458" y="116" type="line"/>
      <point x="425" y="77"/>
      <point x="372" y="54"/>
      <point x="315" y="54" type="curve" smooth="yes"/>
      <point x="219" y="54"/>
      <point x="143" y="128"/>
      <point x="136" y="228" type="curve"/>
      <point x="539" y="228" type="line"/>
      <point x="539" y="250" type="line"/>
      <point x="539" y="390"/>
      <point x="437" y="496"/>
      <point x="300" y="496" type="curve" smooth="yes"/>
      <point x="167" y="496"/>
      <point x="65" y="387"/>
      <point x="65" y="244" type="curve" smooth="yes"/>
      <point x="65" y="100"/>
      <point x="172" y="-10"/>
    </contour>
    <contour>
      <point x="138" y="282" type="line"/>
      <point x="152" y="371"/>
      <point x="216" y="433"/>
      <point x="299" y="433" type="curve" smooth="yes"/>
      <point x="386" y="433"/>
      <point x="454" y="369"/>
      <point x="467" y="282" type="curve"/>
    </contour>
  </outline>
</glyph>
<glyph name="f" format="2">
  <advance width="600"/>
  <unicode hex="0066"/>
  <outline>
    <contour>
      <point x="216" y="0" type="line"/>
      <point x="289" y="0" type="line"/>
      <point x="289" y="428" type="line"/>
      <point x="514" y="428" type="line"/>
      <point x="514" y="488" type="line"/>
      <point x="289" y="488" type="line"/>
      <point x="289" y="574" type="line" smooth="yes"/>
      <point x="289" y="646"/>
      <point x="323" y="675"/>
      <point x="386" y="675" type="curve" smooth="yes"/>
      <point x="432" y="675"/>
      <point x="465" y="669"/>
      <point x="514" y="649" type="curve"/>
      <point x="514" y="717" type="line"/>
      <point x="474" y="731"/>
      <point x="433" y="740"/>
      <point x="393" y="740" type="curve" smooth="yes"/>
      <point x="277" y="740"/>
      <point x="216" y="687"/>
      <point x="216" y="586" type="curve" smooth="yes"/>
      <point x="216" y="488" type="line"/>
      <point x="49" y="488" type="line"/>
      <point x="49" y="428" type="line"/>
      <point x="216" y="428" type="line"/>
    </contour>
  </outline>
</glyph>
<glyph name="g" format="2">
  <advance width="600"/>
  <unicode hex="0067"/>
  <anchor x="298" y="488" name="top"/>
  <outline>
    <contour>
      <point x="303" y="-219" type="curve" smooth="yes"/>
      <point x="436" y="-219"/>
      <point x="509" y="-152"/>
      <point x="509" y="-31" type="curve" smooth="yes"/>
      <point x="509" y="488" type="line"/>
      <point x="437" y="488" type="line"/>
      <point x="437" y="425" type="line"/>
      <point x="398" y="470"/>
      <point x="345" y="494"/>
      <point x="284" y="494" type="curve"/>
      <point x="155" y="494"/>
      <point x="55" y="384"/>
      <point x="55" y="244" type="curve" smooth="yes"/>
      <point x="55" y="104"/>
      <point x="153" y="-6"/>
      <point x="280" y="-6" type="curve" smooth="yes"/>
      <point x="344" y="-6"/>
      <point x="399" y="19"/>
      <point x="436" y="66" type="curve"/>
      <point x="436" y="-32" type="line" smooth="yes"/>
      <point x="436" y="-114"/>
      <point x="389" y="-157"/>
      <point x="300" y="-157" type="curve" smooth="yes"/>
      <point x="250" y="-157"/>
      <point x="204" y="-143"/>
      <point x="144" y="-112" type="curve"/>
      <point x="113" y="-168" type="line"/>
      <point x="169" y="-200"/>
      <point x="237" y="-219"/>
    </contour>
    <contour>
      <point x="298" y="57" type="curve" smooth="yes"/>
      <point x="200" y="57"/>
      <point x="127" y="137"/>
      <point x="127" y="244" type="curve" smooth="yes"/>
      <point x="127" y="351"/>
      <point x="200" y="430"/>
      <point x="298" y="430" type="curve"/>
      <point x="353" y="430"/>
      <point x="404" y="405"/>
      <point x="436" y="364" type="curve"/>
      <point x="436" y="123" type="line"/>
      <point x="405" y="81"/>
      <point x="355" y="57"/>
    </contour>
  </outline>
</glyph>
<glyph name="m" format="2">
  <advance width="600"/>
  <unicode hex="006D"/>
  <outline>
    <contour>
      <point x="67" y="0" type="line"/>
      <point x="135" y="0" type="line"/>
      <point x="135" y="403" type="line"/>
      <point x="154" y="432"/>
      <point x="175" y="440"/>
      <point x="198" y="440" type="curve"/>
      <point x="244" y="440"/>
      <point x="270" y="404"/>
      <point x="270" y="347" type="curve"/>
      <point x="270" y="0" type="line"/>
      <point x="337" y="0" type="line"/>
      <point x="337" y="365" type="line" smooth="yes"/>
      <point x="337" y="377"/>
      <point x="336" y="388"/>
      <point x="334" y="399" type="curve"/>
      <point x="354" y="431"/>
      <point x="375" y="440"/>
      <point x="400" y="440" type="curve"/>
      <point x="445" y="440"/>
      <point x="470" y="404"/>
      <point x="470" y="347" type="curve"/>
      <point x="470" y="0" type="line"/>
      <point x="537" y="0" type="line"/>
      <point x="537" y="365" type="line" smooth="yes"/>
      <point x="537" y="442"/>
      <point x="492" y="495"/>
      <point x="427" y="495" type="curve"/>
      <point x="381" y="495"/>
      <point x="347" y="477"/>
      <point x="320" y="436" type="curve"/>
      <point x="301" y="473"/>
      <point x="266" y="495"/>
      <point x="224" y="495" type="curve"/>
      <point x="187" y="495"/>
      <point x="159" y="480"/>
      <point x="135" y="446" type="curve"/>
      <point x="135" y="488" type="line"/>
      <point x="67" y="488" type="line"/>
    </contour>
  </outline>
</glyph>
<glyph name="o" format="2">
  <advance width="600"/>
  <unicode hex="006F"/>
  <anchor x="300" y="488" name="top"/>
  <outline>
    <contour>
      <point x="300" y="-10" type="curve" smooth="yes"/>
      <point x="434" y="-10"/>
      <point x="537" y="99"/>
      <point x="537" y="243" type="curve" smooth="yes"/>
      <point x="537" y="387"/>
      <point x="434" y="496"/>
      <point x="300" y="496" type="curve" smooth="yes"/>
      <point x="166" y="496"/>
      <point x="63" y="387"/>
      <point x="63" y="243" type="curve" smooth="yes"/>
      <point x="63" y="99"/>
      <point x="166" y="-10"/>
    </contour>
    <contour>
      <point x="300" y="55" type="curve" smooth="yes"/>
      <point x="205" y="55"/>
      <point x="135" y="134"/>
      <point x="135" y="243" type="curve" smooth="yes"/>
      <point x="135" y="352"/>
      <point x="205" y="431"/>
      <point x="300" y="431" type="curve" smooth="yes"/>
      <point x="395" y="431"/>
      <point x="465" y="352"/>
      <point x="465" y="243" type="curve" smooth="yes"/>
      <point x="465" y="134"/>
      <point x="395" y="55"/>
    </contour>
  </outline>
</glyph>
<glyph name="t" format="2">
  <advance width="600"/>
  <unicode hex="0074"/>
  <anchor x="333" y="0" name="bottom"/>
  <outline>
    <contour>
      <point x="380" y="-10" type="curve" smooth="yes"/>
      <point x="422" y="-10"/>
      <point x="465" y="-1"/>
      <point x="509" y="15" type="curve"/>
      <point x="509" y="81" type="line"/>
      <point x="460" y="62"/>
      <point x="419" y="55"/>
      <point x="381" y="55" type="curve" smooth="yes"/>
      <point x="318" y="55"/>
      <point x="284" y="80"/>
      <point x="284" y="141" type="curve" smooth="yes"/>
      <point x="284" y="428" type="line"/>
      <point x="509" y="428" type="line"/>
      <point x="509" y="488" type="line"/>
      <point x="284" y="488" type="line"/>
      <point x="284" y="639" type="line"/>
      <point x="211" y="622" type="line"/>
      <point x="211" y="488" type="line"/>
      <point x="44" y="488" type="line"/>
      <point x="44" y="428" type="line"/>
      <point x="211" y="428" type="line"/>
      <point x="211" y="129" type="line" smooth="yes"/>
      <point x="211" y="38"/>
      <point x="270" y="-10"/>
    </contour>
  </outline>
</glyph>
<glyph name="v" format="2">
  <advance width="600"/>
  <unicode hex="0076"/>
  <outline>
    <contour>
      <point x="265" y="0" type="line"/>
      <point x="335" y="0" type="line"/>
      <point x="545" y="488" type="line"/>
      <point x="467" y="488" type="line"/>
      <point x="302" y="83" type="line"/>
      <point x="134" y="488" type="line"/>
      <point x="55" y="488" type="line"/>
    </contour>
  </outline>
</glyph>
<glyph name="w" format="2">
  <advance width="600"/>
  <unicode hex="0077"/>
  <guideline x="302" y="488" angle="90.0" identifier="o3X4i4dtHm"/>
  <anchor x="302" y="488" name="top"/>
  <outline>
    <contour>
      <point x="135" y="0" type="line"/>
      <point x="203" y="0" type="line"/>
      <point x="301" y="393" type="line"/>
      <point x="399" y="0" type="line"/>
      <point x="465" y="0" type="line"/>
      <point x="562" y="488" type="line"/>
      <point x="502" y="488" type="line"/>
      <point x="434" y="101" type="line"/>
      <point x="335" y="488" type="line"/>
      <point x="270" y="488" type="line"/>
      <point x="172" y="101" type="line"/>
      <point x="103" y="488" type="line"/>
      <point x="38" y="488" type="line"/>
    </contour>
  </outline>
</glyph>
<glyph name="y" format="2">
  <advance width="600"/>
  <unicode hex="0079"/>
  <anchor x="296" y="488" name="top"/>
  <outline>
    <contour>
      <point x="129" y="-219" type="curve" smooth="yes"/>
      <point x="208" y="-219"/>
      <point x="248" y="-190"/>
      <point x="282" y="-111" type="curve" smooth="yes"/>
      <point x="539" y="488" type="line"/>
      <point x="460" y="488" type="line"/>
      <point x="294" y="84" type="line"/>
      <point x="134" y="488" type="line"/>
      <point x="54" y="488" type="line"/>
      <point x="252" y="-3" type="line"/>
      <point x="215" y="-89" type="line" smooth="yes"/>
      <point x="196" y="-134"/>
      <point x="166" y="-151"/>
      <point x="121" y="-151" type="curve"/>
      <point x="105" y="-151"/>
      <point x="86" y="-148"/>
      <point x="61" y="-142" type="curve"/>
      <point x="61" y="-211" type="line"/>
      <point x="83" y="-217"/>
      <point x="108" y="-219"/>
    </contour>
  </outline>
</glyph>
<glyph name="asciitilde" format="2">
  <advance width="600"/>
  <unicode hex="007E"/>
  <outline>
    <contour>
      <point x="120" y="301" type="line"/>
      <point x="128" y="362"/>
      <point x="151" y="392"/>
      <point x="189" y="392" type="curve" smooth="yes"/>
      <point x="206" y="392"/>
      <point x="220" y="387"/>
      <point x="253" y="369" type="curve" smooth="yes"/>
      <point x="328" y="329" type="line" smooth="yes"/>
      <point x="364" y="309"/>
      <point x="391" y="301"/>
      <point x="417" y="301" type="curve" smooth="yes"/>
      <point x="482" y="301"/>
      <point x="527" y="354"/>
      <point x="537" y="447" type="curve"/>
      <point x="481" y="454" type="line"/>
      <point x="474" y="394"/>
      <point x="450" y="363"/>
      <point x="411" y="363" type="curve" smooth="yes"/>
      <point x="394" y="363"/>
      <point x="379" y="369"/>
      <point x="347" y="385" type="curve" smooth="yes"/>
      <point x="272" y="425" type="line" smooth="yes"/>
      <point x="234" y="446"/>
      <point x="209" y="454"/>
      <point x="184" y="454" type="curve" smooth="yes"/>
      <point x="118" y="454"/>
      <point x="74" y="401"/>
      <point x="63" y="308" type="curve"/>
    </contour>
  </outline>
</glyph>
<glyph name="cent" format="2">
  <advance width="600"/>
  <unicode hex="00A2"/>
  <outline>
    <contour>
      <point x="283" y="-118" type="line"/>
      <point x="337" y="-118" type="line"/>
      <point x="337" y="-7" type="line"/>
      <point x="411" y="-2"/>
      <point x="475" y="31"/>
      <point x="514" y="81" type="curve"/>
      <point x="458" y="120" type="line"/>
      <point x="430" y="87"/>
      <point x="387" y="62"/>
      <point x="337" y="57" type="curve"/>
      <point x="337" y="431" type="line"/>
      <point x="387" y="426"/>
      <point x="430" y="402"/>
      <point x="458" y="368" type="curve"/>
      <point x="514" y="407" type="line"/>
      <point x="475" y="458"/>
      <point x="411" y="490"/>
      <point x="337" y="495" type="curve"/>
      <point x="337" y="606" type="line"/>
      <point x="283" y="606" type="line"/>
      <point x="283" y="494" type="line"/>
      <point x="160" y="478"/>
      <point x="72" y="375"/>
      <point x="72" y="244" type="curve" smooth="yes"/>
      <point x="72" y="113"/>
      <point x="160" y="10"/>
      <point x="283" y="-6" type="curve"/>
    </contour>
    <contour>
      <point x="144" y="244" type="curve" smooth="yes"/>
      <point x="144" y="338"/>
      <point x="201" y="412"/>
      <point x="283" y="429" type="curve"/>
      <point x="283" y="59" type="line"/>
      <point x="201" y="76"/>
      <point x="144" y="150"/>
    </contour>
  </outline>
</glyph>
<glyph name="sterling" format="2">
  <advance width="600"/>
  <unicode hex="00A3"/>
  <outline>
    <contour>
      <point x="69" y="289" type="line"/>
      <point x="182" y="289" type="line"/>
      <point x="193" y="254"/>
      <point x="201" y="222"/>
      <point x="201" y="192" type="curve" smooth="yes"/>
      <point x="201" y="152"/>
      <point x="191" y="122"/>
      <point x="172" y="103" type="curve"/>
      <point x="112" y="103"/>
      <point x="66" y="70"/>
      <point x="29" y="10" type="curve"/>
      <point x="81" y="-28" type="line"/>
      <point x="106" y="15"/>
      <point x="134" y="39"/>
      <point x="176" y="39" type="curve" smooth="yes"/>
      <point x="261" y="39"/>
      <point x="345" y="-25"/>
      <point x="432" y="-25" type="curve" smooth="yes"/>
      <point x="491" y="-25"/>
      <point x="537" y="6"/>
      <point x="572" y="63" type="curve"/>
      <point x="518" y="100" type="line"/>
      <point x="495" y="62"/>
      <point x="468" y="42"/>
      <point x="429" y="42" type="curve" smooth="yes"/>
      <point x="367" y="42"/>
      <point x="305" y="77"/>
      <point x="238" y="94" type="curve"/>
      <point x="258" y="119"/>
      <point x="269" y="156"/>
      <point x="269" y="202" type="curve" smooth="yes"/>
      <point x="269" y="228"/>
      <point x="263" y="258"/>
      <point x="254" y="289" type="curve"/>
      <point x="391" y="289" type="line"/>
      <point x="391" y="343" type="line"/>
      <point x="238" y="343" type="line"/>
      <point x="221" y="398"/>
      <point x="203" y="454"/>
      <point x="203" y="506" type="curve"/>
      <point x="203" y="596"/>
      <point x="248" y="648"/>
      <point x="320" y="648" type="curve" smooth="yes"/>
      <point x="383" y="648"/>
      <point x="427" y="608"/>
      <point x="455" y="524" type="curve"/>
      <point x="519" y="550" type="line"/>
      <point x="482" y="654"/>
      <point x="422" y="711"/>
      <point x="320" y="711" type="curve" smooth="yes"/>
      <point x="207" y="711"/>
      <point x="133" y="629"/>
      <point x="133" y="499" type="curve"/>
      <point x="133" y="447"/>
      <point x="149" y="394"/>
      <point x="165" y="343" type="curve"/>
      <point x="69" y="343" type="line"/>
    </contour>
  </outline>
</glyph>
<glyph name="uni00A4" format="2">
  <advance width="600"/>
  <unicode hex="00A4"/>
  <outline>
    <contour>
      <point x="44" y="64" type="line"/>
      <point x="137" y="158" type="line"/>
      <point x="181" y="122"/>
      <point x="238" y="100"/>
      <point x="300" y="100" type="curve" smooth="yes"/>
      <point x="361" y="100"/>
      <point x="417" y="121"/>
      <point x="461" y="157" type="curve"/>
      <point x="555" y="63" type="line"/>
      <point x="595" y="104" type="line"/>
      <point x="501" y="199" type="line"/>
      <point x="535" y="243"/>
      <point x="555" y="299"/>
      <point x="555" y="361" type="curve" smooth="yes"/>
      <point x="555" y="424"/>
      <point x="534" y="480"/>
      <point x="499" y="524" type="curve"/>
      <point x="594" y="619" type="line"/>
      <point x="555" y="659" type="line"/>
      <point x="461" y="564" type="line"/>
      <point x="417" y="600"/>
      <point x="361" y="621"/>
      <point x="300" y="621" type="curve" smooth="yes"/>
      <point x="239" y="621"/>
      <point x="183" y="600"/>
      <point x="139" y="564" type="curve"/>
      <point x="45" y="659" type="line"/>
      <point x="5" y="618" type="line"/>
      <point x="99" y="523" type="line"/>
      <point x="64" y="479"/>
      <point x="44" y="423"/>
      <point x="44" y="361" type="curve" smooth="yes"/>
      <point x="44" y="299"/>
      <point x="64" y="242"/>
      <point x="98" y="198" type="curve"/>
      <point x="5" y="104" type="line"/>
    </contour>
    <contour>
      <point x="300" y="167" type="curve" smooth="yes"/>
      <point x="198" y="167"/>
      <point x="117" y="252"/>
      <point x="117" y="361" type="curve" smooth="yes"/>
      <point x="117" y="470"/>
      <point x="198" y="555"/>
      <point x="300" y="555" type="curve" smooth="yes"/>
      <point x="402" y="555"/>
      <point x="483" y="470"/>
      <point x="483" y="361" type="curve" smooth="yes"/>
      <point x="483" y="252"/>
      <point x="402" y="167"/>
    </contour>
  </outline>
</glyph>
<glyph name="yen" format="2">
  <advance width="600"/>
  <unicode hex="00A5"/>
  <outline>
    <contour>
      <point x="84" y="134" type="line"/>
      <point x="261" y="134" type="line"/>
      <point x="261" y="0" type="line"/>
      <point x="338" y="0" type="line"/>
      <point x="338" y="134" type="line"/>
      <point x="516" y="134" type="line"/>
      <point x="516" y="188" type="line"/>
      <point x="338" y="188" type="line"/>
      <point x="338" y="263" type="line"/>
      <point x="516" y="263" type="line"/>
      <point x="516" y="317" type="line"/>
      <point x="356" y="317" type="line"/>
      <point x="577" y="700" type="line"/>
      <point x="497" y="700" type="line"/>
      <point x="302" y="355" type="line"/>
      <point x="107" y="700" type="line"/>
      <point x="23" y="700" type="line"/>
      <point x="244" y="317" type="line"/>
      <point x="84" y="317" type="line"/>
      <point x="84" y="263" type="line"/>
      <point x="261" y="263" type="line"/>
      <point x="261" y="188" type="line"/>
      <point x="84" y="188" type="line"/>
    </contour>
  </outline>
</glyph>
<glyph name="uni00A6" format="2">
  <advance width="600"/>
  <unicode hex="00A6"/>
  <outline>
    <contour>
      <point x="266" y="287" type="line"/>
      <point x="334" y="287" type="line"/>
      <point x="334" y="700" type="line"/>
      <point x="266" y="700" type="line"/>
    </contour>
    <contour>
      <point x="266" y="-209" type="line"/>
      <point x="334" y="-209" type="line"/>
      <point x="334" y="204" type="line"/>
      <point x="266" y="204" type="line"/>
    </contour>
  </outline>
</glyph>
<glyph name="copyright" format="2">
  <advance width="600"/>
  <unicode hex="00A9"/>
  <outline>
    <contour>
      <point x="305" y="165" type="curve" smooth="yes"/>
      <point x="355" y="165"/>
      <point x="402" y="187"/>
      <point x="435" y="224" type="curve"/>
      <point x="398" y="263" type="line"/>
      <point x="373" y="234"/>
      <point x="340" y="217"/>
      <point x="306" y="217" type="curve" smooth="yes"/>
      <point x="246" y="217"/>
      <point x="198" y="270"/>
      <point x="198" y="350" type="curve" smooth="yes"/>
      <point x="198" y="430"/>
      <point x="246" y="483"/>
      <point x="306" y="483" type="curve" smooth="yes"/>
      <point x="340" y="483"/>
      <point x="373" y="466"/>
      <point x="398" y="437" type="curve"/>
      <point x="435" y="476" type="line"/>
      <point x="402" y="513"/>
      <point x="355" y="535"/>
      <point x="305" y="535" type="curve" smooth="yes"/>
      <point x="215" y="535"/>
      <point x="143" y="458"/>
      <point x="143" y="350" type="curve" smooth="yes"/>
      <point x="143" y="242"/>
      <point x="215" y="165"/>
    </contour>
    <contour>
      <point x="300" y="-11" type="curve" smooth="yes"/>
      <point x="457" y="-11"/>
      <point x="582" y="133"/>
      <point x="582" y="350" type="curve" smooth="yes"/>
      <point x="582" y="567"/>
      <point x="457" y="711"/>
      <point x="300" y="711" type="curve" smooth="yes"/>
      <point x="143" y="711"/>
      <point x="18" y="567"/>
      <point x="18" y="350" type="curve" smooth="yes"/>
      <point x="18" y="133"/>
      <point x="143" y="-11"/>
    </contour>
    <contour>
      <point x="300" y="33" type="curve" smooth="yes"/>
      <point x="168" y="33"/>
      <point x="65" y="166"/>
      <point x="65" y="350" type="curve" smooth="yes"/>
      <point x="65" y="534"/>
      <point x="168" y="667"/>
      <point x="300" y="667" type="curve" smooth="yes"/>
      <point x="432" y="667"/>
      <point x="535" y="534"/>
      <point x="535" y="350" type="curve" smooth="yes"/>
      <point x="535" y="166"/>
      <point x="432" y="33"/>
    </contour>
  </outline>
</glyph>
<glyph name="ordfeminine" format="2">
  <advance width="600"/>
  <unicode hex="00AA"/>
  <outline>
    <contour>
      <point x="261" y="319" type="curve" smooth="yes"/>
      <point x="308" y="319"/>
      <point x="346" y="334"/>
      <point x="381" y="366" type="curve"/>
      <point x="381" y="326" type="line"/>
      <point x="442" y="326" type="line"/>
      <point x="442" y="578" type="line" smooth="yes"/>
      <point x="442" y="663"/>
      <point x="388" y="711"/>
      <point x="291" y="711" type="curve" smooth="yes"/>
      <point x="245" y="711"/>
      <point x="199" y="700"/>
      <point x="143" y="673" type="curve"/>
      <point x="166" y="626" type="line"/>
      <point x="212" y="648"/>
      <point x="248" y="658"/>
      <point x="284" y="658" type="curve" smooth="yes"/>
      <point x="348" y="658"/>
      <point x="381" y="629"/>
      <point x="381" y="571" type="curve" smooth="yes"/>
      <point x="381" y="522" type="line"/>
      <point x="348" y="539"/>
      <point x="311" y="548"/>
      <point x="274" y="548" type="curve" smooth="yes"/>
      <point x="180" y="548"/>
      <point x="121" y="504"/>
      <point x="121" y="433" type="curve" smooth="yes"/>
      <point x="121" y="366"/>
      <point x="178" y="319"/>
    </contour>
    <contour>
      <point x="273" y="367" type="curve" smooth="yes"/>
      <point x="218" y="367"/>
      <point x="181" y="394"/>
      <point x="181" y="435" type="curve" smooth="yes"/>
      <point x="181" y="477"/>
      <point x="218" y="504"/>
      <point x="276" y="504" type="curve" smooth="yes"/>
      <point x="318" y="504"/>
      <point x="351" y="496"/>
      <point x="381" y="477" type="curve"/>
      <point x="381" y="406" type="line"/>
      <point x="352" y="380"/>
      <point x="316" y="367"/>
    </contour>
  </outline>
</glyph>
<glyph name="degree" format="2">
  <advance width="600"/>
  <unicode hex="00B0"/>
  <outline>
    <contour>
      <point x="300" y="423" type="curve" smooth="yes"/>
      <point x="379" y="423"/>
      <point x="443" y="488"/>
      <point x="443" y="567" type="curve" smooth="yes"/>
      <point x="443" y="646"/>
      <point x="379" y="711"/>
      <point x="300" y="711" type="curve" smooth="yes"/>
      <point x="221" y="711"/>
      <point x="157" y="646"/>
      <point x="157" y="567" type="curve" smooth="yes"/>
      <point x="157" y="488"/>
      <point x="221" y="423"/>
    </contour>
    <contour>
      <point x="300" y="472" type="curve" smooth="yes"/>
      <point x="249" y="472"/>
      <point x="207" y="515"/>
      <point x="207" y="567" type="curve" smooth="yes"/>
      <point x="207" y="619"/>
      <point x="249" y="662"/>
      <point x="300" y="662" type="curve" smooth="yes"/>
      <point x="351" y="662"/>
      <point x="393" y="619"/>
      <point x="393" y="567" type="curve" smooth="yes"/>
      <point x="393" y="515"/>
      <point x="351" y="472"/>
    </contour>
  </outline>
</glyph>
<glyph name="plusminus" format="2">
  <advance width="600"/>
  <unicode hex="00B1"/>
  <outline>
    <contour>
      <point x="269" y="173" type="line"/>
      <point x="331" y="173" type="line"/>
      <point x="331" y="349" type="line"/>
      <point x="498" y="349" type="line"/>
      <point x="498" y="409" type="line"/>
      <point x="331" y="409" type="line"/>
      <point x="331" y="585" type="line"/>
      <point x="269" y="585" type="line"/>
      <point x="269" y="409" type="line"/>
      <point x="102" y="409" type="line"/>
      <point x="102" y="349" type="line"/>
      <point x="269" y="349" type="line"/>
    </contour>
    <contour>
      <point x="102" y="-1" type="line"/>
      <point x="498" y="-1" type="line"/>
      <point x="498" y="59" type="line"/>
      <point x="102" y="59" type="line"/>
    </contour>
  </outline>
</glyph>
<glyph name="acute" format="2">
  <advance width="600"/>
  <unicode hex="00B4"/>
  <outline>
    <contour>
      <point x="231" y="604" type="line"/>
      <point x="298" y="604" type="line"/>
      <point x="442" y="726" type="line"/>
      <point x="343" y="726" type="line"/>
    </contour>
  </outline>
</glyph>
<glyph name="paragraph" format="2">
  <advance width="600"/>
  <unicode hex="00B6"/>
  <outline>
    <contour>
      <point x="298" y="0" type="line"/>
      <point x="364" y="0" type="line"/>
      <point x="364" y="288" type="line"/>
      <point x="478" y="288" type="line"/>
      <point x="478" y="0" type="line"/>
      <point x="544" y="0" type="line"/>
      <point x="544" y="700" type="line"/>
      <point x="243" y="700" type="line" smooth="yes"/>
      <point x="118" y="700"/>
      <point x="33" y="617"/>
      <point x="33" y="494" type="curve" smooth="yes"/>
      <point x="33" y="371"/>
      <point x="118" y="288"/>
      <point x="243" y="288" type="curve" smooth="yes"/>
      <point x="298" y="288" type="line"/>
    </contour>
    <contour>
      <point x="478" y="351" type="line"/>
      <point x="364" y="351" type="line"/>
      <point x="364" y="637" type="line"/>
      <point x="478" y="637" type="line"/>
    </contour>
    <contour>
      <point x="244" y="351" type="line" smooth="yes"/>
      <point x="159" y="351"/>
      <point x="102" y="409"/>
      <point x="102" y="494" type="curve" smooth="yes"/>
      <point x="102" y="579"/>
      <point x="159" y="637"/>
      <point x="244" y="637" type="curve" smooth="yes"/>
      <point x="298" y="637" type="line"/>
      <point x="298" y="351" type="line"/>
    </contour>
  </outline>
</glyph>
<glyph name="periodcentered" format="2">
  <advance width="600"/>
  <unicode hex="00B7"/>
  <outline>
    <contour>
      <point x="300" y="228" type="curve" smooth="yes"/>
      <point x="337" y="228"/>
      <point x="365" y="257"/>
      <point x="365" y="293" type="curve" smooth="yes"/>
      <point x="365" y="329"/>
      <point x="337" y="358"/>
      <point x="300" y="358" type="curve" smooth="yes"/>
      <point x="263" y="358"/>
      <point x="235" y="329"/>
      <point x="235" y="293" type="curve" smooth="yes"/>
      <point x="235" y="257"/>
      <point x="263" y="228"/>
    </contour>
  </outline>
</glyph>
<glyph name="ordmasculine" format="2">
  <advance width="600"/>
  <unicode hex="00BA"/>
  <outline>
    <contour>
      <point x="300" y="317" type="curve" smooth="yes"/>
      <point x="408" y="317"/>
      <point x="494" y="403"/>
      <point x="494" y="514" type="curve" smooth="yes"/>
      <point x="494" y="625"/>
      <point x="408" y="711"/>
      <point x="300" y="711" type="curve" smooth="yes"/>
      <point x="192" y="711"/>
      <point x="106" y="625"/>
      <point x="106" y="514" type="curve" smooth="yes"/>
      <point x="106" y="403"/>
      <point x="192" y="317"/>
    </contour>
    <contour>
      <point x="300" y="372" type="curve" smooth="yes"/>
      <point x="226" y="372"/>
      <point x="168" y="434"/>
      <point x="168" y="514" type="curve" smooth="yes"/>
      <point x="168" y="594"/>
      <point x="226" y="656"/>
      <point x="300" y="656" type="curve" smooth="yes"/>
      <point x="374" y="656"/>
      <point x="432" y="594"/>
      <point x="432" y="514" type="curve" smooth="yes"/>
      <point x="432" y="434"/>
      <point x="374" y="372"/>
    </contour>
  </outline>
</glyph>
<glyph name="onequarter" format="2">
  <advance width="600"/>
  <unicode hex="00BC"/>
  <outline>
    <contour>
      <point x="115" y="416" type="line"/>
      <point x="165" y="416" type="line"/>
      <point x="165" y="700" type="line"/>
      <point x="134" y="700" type="line"/>
      <point x="61" y="670" type="line"/>
      <point x="61" y="626" type="line"/>
      <point x="115" y="647" type="line"/>
    </contour>
    <contour>
      <point x="475" y="0" type="line"/>
      <point x="525" y="0" type="line"/>
      <point x="525" y="68" type="line"/>
      <point x="559" y="68" type="line"/>
      <point x="559" y="109" type="line"/>
      <point x="525" y="109" type="line"/>
      <point x="525" y="284" type="line"/>
      <point x="468" y="284" type="line"/>
      <point x="318" y="109" type="line"/>
      <point x="318" y="68" type="line"/>
      <point x="475" y="68" type="line"/>
    </contour>
    <contour>
      <point x="369" y="109" type="line"/>
      <point x="475" y="232" type="line"/>
      <point x="475" y="109" type="line"/>
    </contour>
    <component base="fraction"/>
  </outline>
</glyph>
<glyph name="threequarters" format="2">
  <advance width="600"/>
  <unicode hex="00BE"/>
  <outline>
    <contour>
      <point x="141" y="413" type="curve" smooth="yes"/>
      <point x="205" y="413"/>
      <point x="251" y="447"/>
      <point x="251" y="496" type="curve" smooth="yes"/>
      <point x="251" y="530"/>
      <point x="224" y="554"/>
      <point x="183" y="561" type="curve"/>
      <point x="219" y="570"/>
      <point x="243" y="595"/>
      <point x="243" y="626" type="curve" smooth="yes"/>
      <point x="243" y="673"/>
      <point x="200" y="705"/>
      <point x="141" y="705" type="curve" smooth="yes"/>
      <point x="104" y="705"/>
      <point x="64" y="691"/>
      <point x="36" y="665" type="curve"/>
      <point x="67" y="630" type="line"/>
      <point x="92" y="652"/>
      <point x="114" y="660"/>
      <point x="140" y="660" type="curve" smooth="yes"/>
      <point x="169" y="660"/>
      <point x="192" y="644"/>
      <point x="192" y="620" type="curve" smooth="yes"/>
      <point x="192" y="595"/>
      <point x="170" y="578"/>
      <point x="138" y="578" type="curve"/>
      <point x="115" y="578" type="line"/>
      <point x="115" y="538" type="line"/>
      <point x="143" y="538" type="line"/>
      <point x="178" y="538"/>
      <point x="201" y="523"/>
      <point x="201" y="498" type="curve" smooth="yes"/>
      <point x="201" y="473"/>
      <point x="176" y="457"/>
      <point x="141" y="457" type="curve" smooth="yes"/>
      <point x="113" y="457"/>
      <point x="89" y="466"/>
      <point x="62" y="487" type="curve"/>
      <point x="32" y="450" type="line"/>
      <point x="62" y="426"/>
      <point x="100" y="413"/>
    </contour>
    <contour>
      <point x="475" y="0" type="line"/>
      <point x="525" y="0" type="line"/>
      <point x="525" y="68" type="line"/>
      <point x="559" y="68" type="line"/>
      <point x="559" y="109" type="line"/>
      <point x="525" y="109" type="line"/>
      <point x="525" y="284" type="line"/>
      <point x="468" y="284" type="line"/>
      <point x="318" y="109" type="line"/>
      <point x="318" y="68" type="line"/>
      <point x="475" y="68" type="line"/>
    </contour>
    <contour>
      <point x="369" y="109" type="line"/>
      <point x="475" y="232" type="line"/>
      <point x="475" y="109" type="line"/>
    </contour>
    <component base="fraction"/>
  </outline>
</glyph>
<glyph name="Ccedilla" format="2">
  <advance width="600"/>
  <unicode hex="00C7"/>
  <outline>
    <contour>
      <point x="296" y="-239" type="curve" smooth="yes"/>
      <point x="361" y="-239"/>
      <point x="407" y="-200"/>
      <point x="407" y="-146" type="curve" smooth="yes"/>
      <point x="407" y="-99"/>
      <point x="369" y="-69"/>
      <point x="310" y="-66" type="curve"/>
      <point x="323" y="-10" type="line"/>
      <point x="436" y="-4"/>
      <point x="522" y="75"/>
      <point x="558" y="204" type="curve"/>
      <point x="485" y="227" type="line"/>
      <point x="458" y="119"/>
      <point x="388" y="59"/>
      <point x="306" y="59" type="curve" smooth="yes"/>
      <point x="201" y="59"/>
      <point x="119" y="166"/>
      <point x="119" y="350" type="curve" smooth="yes"/>
      <point x="119" y="534"/>
      <point x="201" y="641"/>
      <point x="306" y="641" type="curve" smooth="yes"/>
      <point x="388" y="641"/>
      <point x="458" y="581"/>
      <point x="485" y="473" type="curve"/>
      <point x="558" y="496" type="line"/>
      <point x="520" y="631"/>
      <point x="428" y="711"/>
      <point x="306" y="711" type="curve" smooth="yes"/>
      <point x="165" y="711"/>
      <point x="41" y="582"/>
      <point x="41" y="350" type="curve" smooth="yes"/>
      <point x="41" y="132"/>
      <point x="150" y="5"/>
      <point x="281" y="-10" type="curve"/>
      <point x="258" y="-99" type="line"/>
      <point x="287" y="-99" type="line" smooth="yes"/>
      <point x="332" y="-99"/>
      <point x="358" y="-117"/>
      <point x="358" y="-148" type="curve" smooth="yes"/>
      <point x="358" y="-180"/>
      <point x="334" y="-200"/>
      <point x="293" y="-200" type="curve" smooth="yes"/>
      <point x="264" y="-200"/>
      <point x="237" y="-190"/>
      <point x="214" y="-171" type="curve"/>
      <point x="186" y="-203" type="line"/>
      <point x="213" y="-227"/>
      <point x="251" y="-239"/>
    </contour>
  </outline>
</glyph>
<glyph name="Thorn" format="2">
  <advance width="600"/>
  <unicode hex="00DE"/>
  <outline>
    <contour>
      <point x="95" y="0" type="line"/>
      <point x="172" y="0" type="line"/>
      <point x="172" y="143" type="line"/>
      <point x="324" y="143" type="line" smooth="yes"/>
      <point x="460" y="143"/>
      <point x="547" y="225"/>
      <point x="547" y="350" type="curve" smooth="yes"/>
      <point x="547" y="475"/>
      <point x="460" y="557"/>
      <point x="324" y="557" type="curve" smooth="yes"/>
      <point x="172" y="557" type="line"/>
      <point x="172" y="700" type="line"/>
      <point x="95" y="700" type="line"/>
    </contour>
    <contour>
      <point x="172" y="210" type="line"/>
      <point x="172" y="490" type="line"/>
      <point x="315" y="490" type="line" smooth="yes"/>
      <point x="412" y="490"/>
      <point x="470" y="437"/>
      <point x="470" y="350" type="curve" smooth="yes"/>
      <point x="470" y="263"/>
      <point x="412" y="210"/>
      <point x="315" y="210" type="curve" smooth="yes"/>
    </contour>
  </outline>
</glyph>
<glyph name="germandbls" format="2">
  <advance width="600"/>
  <unicode hex="00DF"/>
  <outline>
    <contour>
      <point x="390" y="-11" type="curve" smooth="yes"/>
      <point x="493" y="-11"/>
      <point x="563" y="50"/>
      <point x="563" y="140" type="curve" smooth="yes"/>
      <point x="563" y="308"/>
      <point x="322" y="292"/>
      <point x="322" y="371" type="curve" smooth="yes"/>
      <point x="322" y="445"/>
      <point x="480" y="452"/>
      <point x="480" y="576" type="curve" smooth="yes"/>
      <point x="480" y="668"/>
      <point x="403" y="737"/>
      <point x="286" y="737" type="curve" smooth="yes"/>
      <point x="151" y="737"/>
      <point x="72" y="644"/>
      <point x="72" y="501" type="curve" smooth="yes"/>
      <point x="72" y="0" type="line"/>
      <point x="145" y="0" type="line"/>
      <point x="145" y="502" type="line" smooth="yes"/>
      <point x="145" y="607"/>
      <point x="195" y="673"/>
      <point x="287" y="673" type="curve" smooth="yes"/>
      <point x="359" y="673"/>
      <point x="411" y="633"/>
      <point x="411" y="578" type="curve"/>
      <point x="411" y="481"/>
      <point x="254" y="489"/>
      <point x="254" y="371" type="curve" smooth="yes"/>
      <point x="254" y="220"/>
      <point x="494" y="273"/>
      <point x="494" y="138" type="curve" smooth="yes"/>
      <point x="494" y="83"/>
      <point x="451" y="47"/>
      <point x="389" y="47" type="curve" smooth="yes"/>
      <point x="342" y="47"/>
      <point x="300" y="64"/>
      <point x="264" y="98" type="curve"/>
      <point x="223" y="50" type="line"/>
      <point x="270" y="8"/>
      <point x="323" y="-11"/>
    </contour>
  </outline>
</glyph>
<glyph name="eth" format="2">
  <advance width="600"/>
  <unicode hex="00F0"/>
  <outline>
    <contour>
      <point x="296" y="-10" type="curve" smooth="yes"/>
      <point x="443" y="-10"/>
      <point x="541" y="109"/>
      <point x="541" y="289" type="curve" smooth="yes"/>
      <point x="541" y="435"/>
      <point x="499" y="553"/>
      <point x="419" y="635" type="curve"/>
      <point x="510" y="695" type="line"/>
      <point x="483" y="737" type="line"/>
      <point x="380" y="670" type="line"/>
      <point x="343" y="699"/>
      <point x="300" y="721"/>
      <point x="251" y="737" type="curve"/>
      <point x="221" y="685" type="line"/>
      <point x="259" y="673"/>
      <point x="294" y="656"/>
      <point x="325" y="634" type="curve"/>
      <point x="240" y="579" type="line"/>
      <point x="269" y="537" type="line"/>
      <point x="364" y="599" type="line"/>
      <point x="422" y="541"/>
      <point x="460" y="459"/>
      <point x="472" y="362" type="curve"/>
      <point x="439" y="430"/>
      <point x="369" y="476"/>
      <point x="284" y="476" type="curve" smooth="yes"/>
      <point x="155" y="476"/>
      <point x="59" y="375"/>
      <point x="59" y="238" type="curve" smooth="yes"/>
      <point x="59" y="99"/>
      <point x="163" y="-10"/>
    </contour>
    <contour>
      <point x="298" y="54" type="curve" smooth="yes"/>
      <point x="202" y="54"/>
      <point x="131" y="133"/>
      <point x="131" y="236" type="curve" smooth="yes"/>
      <point x="131" y="339"/>
      <point x="202" y="418"/>
      <point x="298" y="418" type="curve" smooth="yes"/>
      <point x="394" y="418"/>
      <point x="465" y="339"/>
      <point x="465" y="236" type="curve" smooth="yes"/>
      <point x="465" y="133"/>
      <point x="394" y="54"/>
    </contour>
  </outline>
</glyph>
<glyph name="oslash" format="2">
  <advance width="600"/>
  <unicode hex="00F8"/>
  <outline>
    <contour>
      <point x="67" y="0" type="line"/>
      <point x="138" y="0" type="line"/>
      <point x="165" y="33" type="line"/>
      <point x="203" y="6"/>
      <point x="249" y="-10"/>
      <point x="300" y="-10" type="curve" smooth="yes"/>
      <point x="434" y="-10"/>
      <point x="537" y="99"/>
      <point x="537" y="243" type="curve" smooth="yes"/>
      <point x="537" y="311"/>
      <point x="514" y="371"/>
      <point x="476" y="416" type="curve"/>
      <point x="534" y="488" type="line"/>
      <point x="463" y="488" type="line"/>
      <point x="435" y="453" type="line"/>
      <point x="397" y="480"/>
      <point x="351" y="496"/>
      <point x="300" y="496" type="curve" smooth="yes"/>
      <point x="166" y="496"/>
      <point x="63" y="387"/>
      <point x="63" y="243" type="curve" smooth="yes"/>
      <point x="63" y="175"/>
      <point x="86" y="115"/>
      <point x="124" y="70" type="curve"/>
    </contour>
    <contour>
      <point x="169" y="125" type="line"/>
      <point x="147" y="157"/>
      <point x="135" y="197"/>
      <point x="135" y="243" type="curve" smooth="yes"/>
      <point x="135" y="352"/>
      <point x="205" y="431"/>
      <point x="300" y="431" type="curve" smooth="yes"/>
      <point x="335" y="431"/>
      <point x="367" y="420"/>
      <point x="393" y="401" type="curve"/>
    </contour>
    <contour>
      <point x="300" y="55" type="curve" smooth="yes"/>
      <point x="265" y="55"/>
      <point x="233" y="66"/>
      <point x="207" y="85" type="curve"/>
      <point x="431" y="361" type="line"/>
      <point x="453" y="330"/>
      <point x="465" y="289"/>
      <point x="465" y="243" type="curve" smooth="yes"/>
      <point x="465" y="134"/>
      <point x="395" y="55"/>
    </contour>
  </outline>
</glyph>
<glyph name="dcaron" format="2">
  <advance width="600"/>
  <unicode hex="010F"/>
  <outline>
    <contour>
      <point x="551" y="527" type="line"/>
      <point x="607" y="527" type="line"/>
      <point x="632" y="737" type="line"/>
      <point x="556" y="722" type="line"/>
    </contour>
    <contour>
      <point x="267" y="-7" type="curve"/>
      <point x="322" y="-7"/>
      <point x="369" y="14"/>
      <point x="404" y="53" type="curve"/>
      <point x="404" y="0" type="line"/>
      <point x="477" y="0" type="line"/>
      <point x="477" y="737" type="line"/>
      <point x="404" y="722" type="line"/>
      <point x="404" y="437" type="line"/>
      <point x="368" y="473"/>
      <point x="322" y="494"/>
      <point x="271" y="494" type="curve"/>
      <point x="151" y="494"/>
      <point x="58" y="384"/>
      <point x="58" y="243" type="curve" smooth="yes"/>
      <point x="58" y="103"/>
      <point x="149" y="-7"/>
    </contour>
    <contour>
      <point x="130" y="244" type="curve" smooth="yes"/>
      <point x="130" y="351"/>
      <point x="194" y="430"/>
      <point x="281" y="430" type="curve"/>
      <point x="329" y="430"/>
      <point x="373" y="410"/>
      <point x="404" y="376" type="curve"/>
      <point x="404" y="110" type="line"/>
      <point x="373" y="76"/>
      <point x="331" y="57"/>
      <point x="281" y="57" type="curve"/>
      <point x="194" y="57"/>
      <point x="130" y="137"/>
    </contour>
  </outline>
</glyph>
<glyph name="eogonek" format="2">
  <advance width="600"/>
  <unicode hex="0119"/>
  <outline>
    <contour>
      <point x="65" y="244" type="curve" smooth="yes"/>
      <point x="65" y="97"/>
      <point x="176" y="-14"/>
      <point x="320" y="-10" type="curve"/>
      <point x="260" y="-56"/>
      <point x="235" y="-93"/>
      <point x="235" y="-140" type="curve" smooth="yes"/>
      <point x="235" y="-195"/>
      <point x="277" y="-231"/>
      <point x="341" y="-231" type="curve" smooth="yes"/>
      <point x="368" y="-231"/>
      <point x="395" y="-224"/>
      <point x="414" y="-212" type="curve"/>
      <point x="400" y="-173" type="line"/>
      <point x="388" y="-181"/>
      <point x="369" y="-185"/>
      <point x="352" y="-185" type="curve" smooth="yes"/>
      <point x="310" y="-185"/>
      <point x="285" y="-164"/>
      <point x="285" y="-128" type="curve" smooth="yes"/>
      <point x="285" y="-87"/>
      <point x="317" y="-47"/>
      <point x="389" y="0" type="curve"/>
      <point x="434" y="12"/>
      <point x="475" y="36"/>
      <point x="509" y="71" type="curve"/>
      <point x="458" y="116" type="line"/>
      <point x="425" y="77"/>
      <point x="372" y="54"/>
      <point x="315" y="54" type="curve" smooth="yes"/>
      <point x="219" y="54"/>
      <point x="143" y="128"/>
      <point x="136" y="228" type="curve"/>
      <point x="539" y="228" type="line"/>
      <point x="539" y="250" type="line" smooth="yes"/>
      <point x="539" y="390"/>
      <point x="437" y="496"/>
      <point x="300" y="496" type="curve" smooth="yes"/>
      <point x="167" y="496"/>
      <point x="65" y="387"/>
    </contour>
    <contour>
      <point x="138" y="282" type="line"/>
      <point x="152" y="371"/>
      <point x="216" y="433"/>
      <point x="299" y="433" type="curve" smooth="yes"/>
      <point x="386" y="433"/>
      <point x="454" y="369"/>
      <point x="467" y="282" type="curve"/>
    </contour>
  </outline>
</glyph>
<glyph name="hcircumflex" format="2">
  <advance width="600"/>
  <unicode hex="0125"/>
  <outline>
    <contour>
      <point x="99" y="0" type="line"/>
      <point x="172" y="0" type="line"/>
      <point x="172" y="359" type="line"/>
      <point x="201" y="408"/>
      <point x="246" y="434"/>
      <point x="300" y="434" type="curve" smooth="yes"/>
      <point x="380" y="434"/>
      <point x="431" y="380"/>
      <point x="431" y="294" type="curve" smooth="yes"/>
      <point x="431" y="0" type="line"/>
      <point x="504" y="0" type="line"/>
      <point x="504" y="315" type="line" smooth="yes"/>
      <point x="504" y="422"/>
      <point x="432" y="495"/>
      <point x="327" y="495" type="curve" smooth="yes"/>
      <point x="262" y="495"/>
      <point x="209" y="466"/>
      <point x="172" y="408" type="curve"/>
      <point x="172" y="727" type="line"/>
      <point x="99" y="727" type="line"/>
    </contour>
    <component base="circumflex" xOffset="-166" yOffset="212"/>
  </outline>
</glyph>
<glyph name="hbar" format="2">
  <advance width="600"/>
  <unicode hex="0127"/>
  <outline>
    <contour>
      <point x="99" y="0" type="line"/>
      <point x="172" y="0" type="line"/>
      <point x="172" y="360" type="line"/>
      <point x="201" y="409"/>
      <point x="246" y="435"/>
      <point x="300" y="435" type="curve" smooth="yes"/>
      <point x="380" y="435"/>
      <point x="431" y="381"/>
      <point x="431" y="295" type="curve" smooth="yes"/>
      <point x="431" y="0" type="line"/>
      <point x="504" y="0" type="line"/>
      <point x="504" y="316" type="line" smooth="yes"/>
      <point x="504" y="423"/>
      <point x="432" y="496"/>
      <point x="327" y="496" type="curve" smooth="yes"/>
      <point x="262" y="496"/>
      <point x="209" y="467"/>
      <point x="172" y="409" type="curve"/>
      <point x="172" y="573" type="line"/>
      <point x="301" y="573" type="line"/>
      <point x="301" y="627" type="line"/>
      <point x="172" y="627" type="line"/>
      <point x="172" y="737" type="line"/>
      <point x="99" y="722" type="line"/>
      <point x="99" y="627" type="line"/>
      <point x="21" y="627" type="line"/>
      <point x="21" y="573" type="line"/>
      <point x="99" y="573" type="line"/>
    </contour>
  </outline>
</glyph>
<glyph name="Iogonek" format="2">
  <advance width="600"/>
  <unicode hex="012E"/>
  <outline>
    <contour>
      <point x="80" y="0" type="line"/>
      <point x="465" y="0" type="line"/>
      <point x="395" y="-50"/>
      <point x="366" y="-91"/>
      <point x="366" y="-140" type="curve" smooth="yes"/>
      <point x="366" y="-195"/>
      <point x="408" y="-231"/>
      <point x="472" y="-231" type="curve" smooth="yes"/>
      <point x="499" y="-231"/>
      <point x="526" y="-224"/>
      <point x="545" y="-212" type="curve"/>
      <point x="531" y="-173" type="line"/>
      <point x="519" y="-181"/>
      <point x="500" y="-185"/>
      <point x="483" y="-185" type="curve" smooth="yes"/>
      <point x="441" y="-185"/>
      <point x="416" y="-164"/>
      <point x="416" y="-128" type="curve" smooth="yes"/>
      <point x="416" y="-87"/>
      <point x="448" y="-47"/>
      <point x="520" y="0" type="curve"/>
      <point x="520" y="67" type="line"/>
      <point x="339" y="67" type="line"/>
      <point x="339" y="633" type="line"/>
      <point x="520" y="633" type="line"/>
      <point x="520" y="700" type="line"/>
      <point x="80" y="700" type="line"/>
      <point x="80" y="633" type="line"/>
      <point x="262" y="633" type="line"/>
      <point x="262" y="67" type="line"/>
      <point x="80" y="67" type="line"/>
    </contour>
  </outline>
</glyph>
<glyph name="ij" format="2">
  <advance width="600"/>
  <unicode hex="0133"/>
  <outline>
    <contour>
      <point x="131" y="0" type="line"/>
      <point x="204" y="0" type="line"/>
      <point x="204" y="488" type="line"/>
      <point x="131" y="488" type="line"/>
    </contour>
    <contour>
      <point x="346" y="-219" type="curve" smooth="yes"/>
      <point x="426" y="-219"/>
      <point x="469" y="-173"/>
      <point x="469" y="-94" type="curve" smooth="yes"/>
      <point x="469" y="488" type="line"/>
      <point x="396" y="488" type="line"/>
      <point x="396" y="-90" type="line" smooth="yes"/>
      <point x="396" y="-135"/>
      <point x="379" y="-154"/>
      <point x="337" y="-154" type="curve" smooth="yes"/>
      <point x="323" y="-154"/>
      <point x="313" y="-153"/>
      <point x="301" y="-150" type="curve"/>
      <point x="301" y="-213" type="line"/>
      <point x="314" y="-216"/>
      <point x="330" y="-219"/>
    </contour>
    <contour>
      <point x="230" y="666" type="curve" smooth="yes"/>
      <point x="230" y="700"/>
      <point x="202" y="728"/>
      <point x="167" y="728" type="curve" smooth="yes"/>
      <point x="132" y="728"/>
      <point x="104" y="700"/>
      <point x="104" y="666" type="curve" smooth="yes"/>
      <point x="104" y="632"/>
      <point x="132" y="604"/>
      <point x="167" y="604" type="curve" smooth="yes"/>
      <point x="202" y="604"/>
      <point x="230" y="632"/>
    </contour>
    <contour>
      <point x="496" y="666" type="curve" smooth="yes"/>
      <point x="496" y="700"/>
      <point x="468" y="728"/>
      <point x="433" y="728" type="curve" smooth="yes"/>
      <point x="398" y="728"/>
      <point x="370" y="700"/>
      <point x="370" y="666" type="curve" smooth="yes"/>
      <point x="370" y="632"/>
      <point x="398" y="604"/>
      <point x="433" y="604" type="curve" smooth="yes"/>
      <point x="468" y="604"/>
      <point x="496" y="632"/>
    </contour>
  </outline>
</glyph>
<glyph name="eng" format="2">
  <advance width="600"/>
  <unicode hex="014B"/>
  <outline>
    <contour>
      <point x="370" y="-219" type="curve" smooth="yes"/>
      <point x="456" y="-219"/>
      <point x="504" y="-174"/>
      <point x="504" y="-93" type="curve" smooth="yes"/>
      <point x="504" y="316" type="line" smooth="yes"/>
      <point x="504" y="423"/>
      <point x="432" y="496"/>
      <point x="327" y="496" type="curve" smooth="yes"/>
      <point x="262" y="496"/>
      <point x="209" y="467"/>
      <point x="172" y="409" type="curve"/>
      <point x="172" y="488" type="line"/>
      <point x="99" y="488" type="line"/>
      <point x="99" y="0" type="line"/>
      <point x="172" y="0" type="line"/>
      <point x="172" y="360" type="line"/>
      <point x="201" y="409"/>
      <point x="246" y="435"/>
      <point x="300" y="435" type="curve" smooth="yes"/>
      <point x="380" y="435"/>
      <point x="431" y="381"/>
      <point x="431" y="295" type="curve" smooth="yes"/>
      <point x="431" y="-89" type="line" smooth="yes"/>
      <point x="431" y="-134"/>
      <point x="411" y="-153"/>
      <point x="361" y="-153" type="curve" smooth="yes"/>
      <point x="344" y="-153"/>
      <point x="332" y="-152"/>
      <point x="306" y="-146" type="curve"/>
      <point x="306" y="-212" type="line"/>
      <point x="332" y="-217"/>
      <point x="352" y="-219"/>
    </contour>
  </outline>
</glyph>
<glyph name="oe" format="2">
  <advance width="600"/>
  <unicode hex="0153"/>
  <outline>
    <contour>
      <point x="179" y="-8" type="curve" smooth="yes"/>
      <point x="232" y="-8"/>
      <point x="276" y="30"/>
      <point x="303" y="93" type="curve"/>
      <point x="334" y="29"/>
      <point x="386" y="-10"/>
      <point x="448" y="-10" type="curve" smooth="yes"/>
      <point x="494" y="-10"/>
      <point x="539" y="7"/>
      <point x="578" y="39" type="curve"/>
      <point x="539" y="91" type="line"/>
      <point x="512" y="67"/>
      <point x="478" y="54"/>
      <point x="449" y="54" type="curve" smooth="yes"/>
      <point x="387" y="54"/>
      <point x="343" y="126"/>
      <point x="338" y="228" type="curve"/>
      <point x="581" y="228" type="line"/>
      <point x="581" y="250" type="line" smooth="yes"/>
      <point x="581" y="400"/>
      <point x="523" y="496"/>
      <point x="434" y="496" type="curve" smooth="yes"/>
      <point x="378" y="496"/>
      <point x="331" y="458"/>
      <point x="302" y="397" type="curve"/>
      <point x="275" y="458"/>
      <point x="231" y="496"/>
      <point x="179" y="496" type="curve" smooth="yes"/>
      <point x="88" y="496"/>
      <point x="21" y="390"/>
      <point x="21" y="244" type="curve" smooth="yes"/>
      <point x="21" y="98"/>
      <point x="88" y="-8"/>
    </contour>
    <contour>
      <point x="434" y="435" type="curve" smooth="yes"/>
      <point x="482" y="435"/>
      <point x="512" y="378"/>
      <point x="516" y="280" type="curve"/>
      <point x="339" y="280" type="line"/>
      <point x="347" y="372"/>
      <point x="384" y="435"/>
    </contour>
    <contour>
      <point x="179" y="54" type="curve" smooth="yes"/>
      <point x="127" y="54"/>
      <point x="90" y="133"/>
      <point x="90" y="244" type="curve" smooth="yes"/>
      <point x="90" y="355"/>
      <point x="127" y="434"/>
      <point x="179" y="434" type="curve" smooth="yes"/>
      <point x="231" y="434"/>
      <point x="268" y="355"/>
      <point x="268" y="244" type="curve" smooth="yes"/>
      <point x="268" y="133"/>
      <point x="231" y="54"/>
    </contour>
  </outline>
</glyph>
<glyph name="scedilla" format="2">
  <advance width="600"/>
  <unicode hex="015F"/>
  <outline>
    <contour>
      <point x="288" y="-239" type="curve" smooth="yes"/>
      <point x="353" y="-239"/>
      <point x="399" y="-200"/>
      <point x="399" y="-146" type="curve" smooth="yes"/>
      <point x="399" y="-99"/>
      <point x="361" y="-69"/>
      <point x="302" y="-66" type="curve"/>
      <point x="315" y="-9" type="line"/>
      <point x="423" y="-2"/>
      <point x="502" y="61"/>
      <point x="502" y="141" type="curve" smooth="yes"/>
      <point x="502" y="344"/>
      <point x="160" y="225"/>
      <point x="160" y="357" type="curve" smooth="yes"/>
      <point x="160" y="404"/>
      <point x="209" y="434"/>
      <point x="283" y="434" type="curve" smooth="yes"/>
      <point x="341" y="434"/>
      <point x="398" y="421"/>
      <point x="453" y="382" type="curve"/>
      <point x="489" y="435" type="line"/>
      <point x="423" y="480"/>
      <point x="359" y="496"/>
      <point x="286" y="496" type="curve" smooth="yes"/>
      <point x="173" y="496"/>
      <point x="93" y="437"/>
      <point x="93" y="352" type="curve" smooth="yes"/>
      <point x="93" y="151"/>
      <point x="433" y="272"/>
      <point x="433" y="137" type="curve" smooth="yes"/>
      <point x="433" y="88"/>
      <point x="374" y="52"/>
      <point x="293" y="52" type="curve" smooth="yes"/>
      <point x="235" y="52"/>
      <point x="181" y="67"/>
      <point x="119" y="113" type="curve"/>
      <point x="80" y="62" type="line"/>
      <point x="127" y="16"/>
      <point x="195" y="-6"/>
      <point x="273" y="-9" type="curve"/>
      <point x="250" y="-99" type="line"/>
      <point x="279" y="-99" type="line" smooth="yes"/>
      <point x="324" y="-99"/>
      <point x="350" y="-117"/>
      <point x="350" y="-148" type="curve" smooth="yes"/>
      <point x="350" y="-180"/>
      <point x="326" y="-200"/>
      <point x="285" y="-200" type="curve" smooth="yes"/>
      <point x="256" y="-200"/>
      <point x="229" y="-190"/>
      <point x="206" y="-171" type="curve"/>
      <point x="178" y="-203" type="line"/>
      <point x="205" y="-227"/>
      <point x="243" y="-239"/>
    </contour>
  </outline>
</glyph>
<glyph name="Tcedilla" format="2">
  <advance width="600"/>
  <unicode hex="0162"/>
  <outline>
    <contour>
      <point x="262" y="0" type="line"/>
      <point x="279" y="0" type="line"/>
      <point x="254" y="-99" type="line"/>
      <point x="283" y="-99" type="line" smooth="yes"/>
      <point x="328" y="-99"/>
      <point x="354" y="-117"/>
      <point x="354" y="-148" type="curve" smooth="yes"/>
      <point x="354" y="-180"/>
      <point x="330" y="-200"/>
      <point x="289" y="-200" type="curve" smooth="yes"/>
      <point x="260" y="-200"/>
      <point x="233" y="-190"/>
      <point x="210" y="-171" type="curve"/>
      <point x="182" y="-203" type="line"/>
      <point x="209" y="-227"/>
      <point x="247" y="-239"/>
      <point x="292" y="-239" type="curve" smooth="yes"/>
      <point x="357" y="-239"/>
      <point x="403" y="-200"/>
      <point x="403" y="-146" type="curve" smooth="yes"/>
      <point x="403" y="-99"/>
      <point x="365" y="-69"/>
      <point x="306" y="-66" type="curve"/>
      <point x="321" y="0" type="line"/>
      <point x="339" y="0" type="line"/>
      <point x="339" y="633" type="line"/>
      <point x="570" y="633" type="line"/>
      <point x="570" y="700" type="line"/>
      <point x="30" y="700" type="line"/>
      <point x="30" y="633" type="line"/>
      <point x="262" y="633" type="line"/>
    </contour>
  </outline>
</glyph>
<glyph name="Tbar" format="2">
  <advance width="600"/>
  <unicode hex="0166"/>
  <outline>
    <contour>
      <point x="262" y="0" type="line"/>
      <point x="339" y="0" type="line"/>
      <point x="339" y="312" type="line"/>
      <point x="492" y="312" type="line"/>
      <point x="492" y="373" type="line"/>
      <point x="339" y="373" type="line"/>
      <point x="339" y="633" type="line"/>
      <point x="570" y="633" type="line"/>
      <point x="570" y="700" type="line"/>
      <point x="30" y="700" type="line"/>
      <point x="30" y="633" type="line"/>
      <point x="262" y="633" type="line"/>
      <point x="262" y="373" type="line"/>
      <point x="108" y="373" type="line"/>
      <point x="108" y="312" type="line"/>
      <point x="262" y="312" type="line"/>
    </contour>
  </outline>
</glyph>
<glyph name="uogonek" format="2">
  <advance width="600"/>
  <unicode hex="0173"/>
  <outline>
    <contour>
      <point x="273" y="-8" type="curve" smooth="yes"/>
      <point x="339" y="-8"/>
      <point x="391" y="21"/>
      <point x="428" y="79" type="curve"/>
      <point x="428" y="0" type="line"/>
      <point x="446" y="0" type="line"/>
      <point x="376" y="-50"/>
      <point x="347" y="-91"/>
      <point x="347" y="-140" type="curve" smooth="yes"/>
      <point x="347" y="-195"/>
      <point x="389" y="-231"/>
      <point x="453" y="-231" type="curve" smooth="yes"/>
      <point x="480" y="-231"/>
      <point x="507" y="-224"/>
      <point x="526" y="-212" type="curve"/>
      <point x="512" y="-173" type="line"/>
      <point x="500" y="-181"/>
      <point x="481" y="-185"/>
      <point x="464" y="-185" type="curve" smooth="yes"/>
      <point x="422" y="-185"/>
      <point x="397" y="-164"/>
      <point x="397" y="-128" type="curve" smooth="yes"/>
      <point x="397" y="-87"/>
      <point x="429" y="-47"/>
      <point x="501" y="0" type="curve"/>
      <point x="501" y="488" type="line"/>
      <point x="428" y="488" type="line"/>
      <point x="428" y="127" type="line"/>
      <point x="399" y="79"/>
      <point x="354" y="53"/>
      <point x="300" y="53" type="curve" smooth="yes"/>
      <point x="220" y="53"/>
      <point x="170" y="107"/>
      <point x="170" y="194" type="curve" smooth="yes"/>
      <point x="170" y="488" type="line"/>
      <point x="96" y="488" type="line"/>
      <point x="96" y="173" type="line" smooth="yes"/>
      <point x="96" y="66"/>
      <point x="168" y="-8"/>
    </contour>
  </outline>
</glyph>
<glyph name="dotlessj" format="2">
  <advance width="600"/>
  <unicode hex="0237"/>
  <anchor x="385" y="488" name="top"/>
  <outline>
    <contour>
      <point x="233" y="-219" type="curve" smooth="yes"/>
      <point x="357" y="-219"/>
      <point x="421" y="-165"/>
      <point x="421" y="-59" type="curve" smooth="yes"/>
      <point x="421" y="488" type="line"/>
      <point x="97" y="488" type="line"/>
      <point x="97" y="428" type="line"/>
      <point x="348" y="428" type="line"/>
      <point x="348" y="-46" type="line" smooth="yes"/>
      <point x="348" y="-123"/>
      <point x="311" y="-154"/>
      <point x="243" y="-154" type="curve" smooth="yes"/>
      <point x="191" y="-154"/>
      <point x="154" y="-147"/>
      <point x="97" y="-124" type="curve"/>
      <point x="97" y="-193" type="line"/>
      <point x="143" y="-209"/>
      <point x="189" y="-219"/>
    </contour>
  </outline>
</glyph>
<glyph name="circumflex" format="2">
  <advance width="600"/>
  <unicode hex="02C6"/>
  <outline>
    <contour>
      <point x="147" y="599" type="line"/>
      <point x="206" y="599" type="line"/>
      <point x="299" y="683" type="line"/>
      <point x="393" y="599" type="line"/>
      <point x="453" y="599" type="line"/>
      <point x="339" y="726" type="line"/>
      <point x="261" y="726" type="line"/>
    </contour>
  </outline>
</glyph>
<glyph name="dotaccent" format="2">
  <advance width="600"/>
  <unicode hex="02D9"/>
  <outline>
    <contour>
      <point x="300" y="604" type="curve" smooth="yes"/>
      <point x="335" y="604"/>
      <point x="363" y="632"/>
      <point x="363" y="666" type="curve" smooth="yes"/>
      <point x="363" y="700"/>
      <point x="335" y="728"/>
      <point x="300" y="728" type="curve" smooth="yes"/>
      <point x="265" y="728"/>
      <point x="237" y="700"/>
      <point x="237" y="666" type="curve" smooth="yes"/>
      <point x="237" y="632"/>
      <point x="265" y="604"/>
    </contour>
  </outline>
</glyph>
<glyph name="endash" format="2">
  <advance width="600"/>
  <unicode hex="2013"/>
  <outline>
    <contour>
      <point x="86" y="250" type="line"/>
      <point x="514" y="250" type="line"/>
      <point x="514" y="310" type="line"/>
      <point x="86" y="310" type="line"/>
    </contour>
  </outline>
</glyph>
<glyph name="dagger" format="2">
  <advance width="600"/>
  <unicode hex="2020"/>
  <outline>
    <contour>
      <point x="268" y="0" type="line"/>
      <point x="332" y="0" type="line"/>
      <point x="332" y="443" type="line"/>
      <point x="467" y="443" type="line"/>
      <point x="467" y="500" type="line"/>
      <point x="332" y="500" type="line"/>
      <point x="332" y="700" type="line"/>
      <point x="268" y="700" type="line"/>
      <point x="268" y="500" type="line"/>
      <point x="133" y="500" type="line"/>
      <point x="133" y="443" type="line"/>
      <point x="268" y="443" type="line"/>
    </contour>
  </outline>
</glyph>
<glyph name="daggerdbl" format="2">
  <advance width="600"/>
  <unicode hex="2021"/>
  <outline>
    <contour>
      <point x="133" y="200" type="line"/>
      <point x="268" y="200" type="line"/>
      <point x="268" y="0" type="line"/>
      <point x="332" y="0" type="line"/>
      <point x="332" y="200" type="line"/>
      <point x="467" y="200" type="line"/>
      <point x="467" y="257" type="line"/>
      <point x="332" y="257" type="line"/>
      <point x="332" y="443" type="line"/>
      <point x="467" y="443" type="line"/>
      <point x="467" y="500" type="line"/>
      <point x="332" y="500" type="line"/>
      <point x="332" y="700" type="line"/>
      <point x="268" y="700" type="line"/>
      <point x="268" y="500" type="line"/>
      <point x="133" y="500" type="line"/>
      <point x="133" y="443" type="line"/>
      <point x="268" y="443" type="line"/>
      <point x="268" y="257" type="line"/>
      <point x="133" y="257" type="line"/>
    </contour>
  </outline>
</glyph>
<glyph name="perthousand" format="2">
  <advance width="600"/>
  <unicode hex="2030"/>
  <outline>
    <contour>
      <point x="46" y="0" type="line"/>
      <point x="94" y="0" type="line"/>
      <point x="352" y="700" type="line"/>
      <point x="304" y="700" type="line"/>
    </contour>
    <contour>
      <point x="104" y="449" type="curve" smooth="yes"/>
      <point x="156" y="449"/>
      <point x="193" y="500"/>
      <point x="193" y="577" type="curve" smooth="yes"/>
      <point x="193" y="654"/>
      <point x="156" y="705"/>
      <point x="104" y="705" type="curve" smooth="yes"/>
      <point x="52" y="705"/>
      <point x="15" y="654"/>
      <point x="15" y="577" type="curve" smooth="yes"/>
      <point x="15" y="500"/>
      <point x="52" y="449"/>
    </contour>
    <contour>
      <point x="104" y="490" type="curve" smooth="yes"/>
      <point x="77" y="490"/>
      <point x="60" y="522"/>
      <point x="60" y="577" type="curve" smooth="yes"/>
      <point x="60" y="632"/>
      <point x="77" y="664"/>
      <point x="104" y="664" type="curve" smooth="yes"/>
      <point x="131" y="664"/>
      <point x="148" y="632"/>
      <point x="148" y="577" type="curve" smooth="yes"/>
      <point x="148" y="522"/>
      <point x="131" y="490"/>
    </contour>
    <contour>
      <point x="294" y="36" type="curve" smooth="yes"/>
      <point x="268" y="36"/>
      <point x="250" y="68"/>
      <point x="250" y="123" type="curve" smooth="yes"/>
      <point x="250" y="178"/>
      <point x="268" y="210"/>
      <point x="294" y="210" type="curve" smooth="yes"/>
      <point x="320" y="210"/>
      <point x="338" y="178"/>
      <point x="338" y="123" type="curve" smooth="yes"/>
      <point x="338" y="68"/>
      <point x="320" y="36"/>
    </contour>
    <contour>
      <point x="294" y="-5" type="curve" smooth="yes"/>
      <point x="346" y="-5"/>
      <point x="383" y="46"/>
      <point x="383" y="123" type="curve" smooth="yes"/>
      <point x="383" y="200"/>
      <point x="346" y="251"/>
      <point x="294" y="251" type="curve" smooth="yes"/>
      <point x="242" y="251"/>
      <point x="205" y="200"/>
      <point x="205" y="123" type="curve" smooth="yes"/>
      <point x="205" y="46"/>
      <point x="242" y="-5"/>
    </contour>
    <contour>
      <point x="496" y="36" type="curve" smooth="yes"/>
      <point x="470" y="36"/>
      <point x="452" y="68"/>
      <point x="452" y="123" type="curve" smooth="yes"/>
      <point x="452" y="178"/>
      <point x="470" y="210"/>
      <point x="496" y="210" type="curve" smooth="yes"/>
      <point x="522" y="210"/>
      <point x="540" y="178"/>
      <point x="540" y="123" type="curve" smooth="yes"/>
      <point x="540" y="68"/>
      <point x="522" y="36"/>
    </contour>
    <contour>
      <point x="496" y="-5" type="curve" smooth="yes"/>
      <point x="548" y="-5"/>
      <point x="585" y="46"/>
      <point x="585" y="123" type="curve" smooth="yes"/>
      <point x="585" y="200"/>
      <point x="548" y="251"/>
      <point x="496" y="251" type="curve" smooth="yes"/>
      <point x="444" y="251"/>
      <point x="407" y="200"/>
      <point x="407" y="123" type="curve" smooth="yes"/>
      <point x="407" y="46"/>
      <point x="444" y="-5"/>
    </contour>
  </outline>
</glyph>
<glyph name="guilsinglleft" format="2">
  <advance width="600"/>
  <unicode hex="2039"/>
  <outline>
    <contour>
      <point x="375" y="0" type="line"/>
      <point x="455" y="0" type="line"/>
      <point x="238" y="246" type="line"/>
      <point x="455" y="488" type="line"/>
      <point x="378" y="488" type="line"/>
      <point x="155" y="245" type="line"/>
    </contour>
  </outline>
</glyph>
<glyph name="uni2080" format="2">
  <advance width="600"/>
  <unicode hex="2080"/>
  <outline>
    <contour>
      <point x="300" y="-5" type="curve" smooth="yes"/>
      <point x="387" y="-5"/>
      <point x="446" y="68"/>
      <point x="446" y="175" type="curve" smooth="yes"/>
      <point x="446" y="282"/>
      <point x="387" y="355"/>
      <point x="300" y="355" type="curve" smooth="yes"/>
      <point x="213" y="355"/>
      <point x="154" y="282"/>
      <point x="154" y="175" type="curve" smooth="yes"/>
      <point x="154" y="68"/>
      <point x="213" y="-5"/>
    </contour>
    <contour>
      <point x="300" y="41" type="curve" smooth="yes"/>
      <point x="242" y="41"/>
      <point x="204" y="92"/>
      <point x="204" y="175" type="curve" smooth="yes"/>
      <point x="204" y="258"/>
      <point x="242" y="309"/>
      <point x="300" y="309" type="curve" smooth="yes"/>
      <point x="358" y="309"/>
      <point x="396" y="258"/>
      <point x="396" y="175" type="curve" smooth="yes"/>
      <point x="396" y="92"/>
      <point x="358" y="41"/>
    </contour>
  </outline>
</glyph>
<glyph name="uni2081" format="2">
  <advance width="600"/>
  <unicode hex="2081"/>
  <outline>
    <contour>
      <point x="279" y="0" type="line"/>
      <point x="330" y="0" type="line"/>
      <point x="330" y="350" type="line"/>
      <point x="298" y="350" type="line"/>
      <point x="186" y="315" type="line"/>
      <point x="186" y="270" type="line"/>
      <point x="279" y="298" type="line"/>
    </contour>
  </outline>
</glyph>
<glyph name="uni2082" format="2">
  <advance width="600"/>
  <unicode hex="2082"/>
  <outline>
    <contour>
      <point x="166" y="0" type="line"/>
      <point x="408" y="0" type="line"/>
      <point x="408" y="42" type="line"/>
      <point x="231" y="42" type="line"/>
      <point x="340" y="144" type="line" smooth="yes"/>
      <point x="387" y="187"/>
      <point x="403" y="214"/>
      <point x="403" y="254" type="curve" smooth="yes"/>
      <point x="403" y="312"/>
      <point x="354" y="355"/>
      <point x="283" y="355" type="curve" smooth="yes"/>
      <point x="238" y="355"/>
      <point x="197" y="336"/>
      <point x="158" y="302" type="curve"/>
      <point x="187" y="267" type="line"/>
      <point x="224" y="300"/>
      <point x="250" y="310"/>
      <point x="282" y="310" type="curve" smooth="yes"/>
      <point x="323" y="310"/>
      <point x="353" y="284"/>
      <point x="353" y="250" type="curve" smooth="yes"/>
      <point x="353" y="222"/>
      <point x="341" y="201"/>
      <point x="306" y="168" type="curve" smooth="yes"/>
      <point x="166" y="38" type="line"/>
    </contour>
  </outline>
</glyph>
<glyph name="uni2084" format="2">
  <advance width="600"/>
  <unicode hex="2084"/>
  <outline>
    <contour>
      <point x="342" y="0" type="line"/>
      <point x="393" y="0" type="line"/>
      <point x="393" y="88" type="line"/>
      <point x="435" y="88" type="line"/>
      <point x="435" y="130" type="line"/>
      <point x="393" y="130" type="line"/>
      <point x="393" y="350" type="line"/>
      <point x="336" y="350" type="line"/>
      <point x="145" y="129" type="line"/>
      <point x="145" y="88" type="line"/>
      <point x="342" y="88" type="line"/>
    </contour>
    <contour>
      <point x="199" y="130" type="line"/>
      <point x="342" y="295" type="line"/>
      <point x="342" y="130" type="line"/>
    </contour>
  </outline>
</glyph>
<glyph name="uni2085" format="2">
  <advance width="600"/>
  <unicode hex="2085"/>
  <outline>
    <contour>
      <point x="281" y="-5" type="curve" smooth="yes"/>
      <point x="362" y="-5"/>
      <point x="416" y="41"/>
      <point x="416" y="110" type="curve" smooth="yes"/>
      <point x="416" y="173"/>
      <point x="366" y="217"/>
      <point x="288" y="217" type="curve" smooth="yes"/>
      <point x="264" y="217"/>
      <point x="241" y="212"/>
      <point x="220" y="203" type="curve"/>
      <point x="224" y="308" type="line"/>
      <point x="397" y="308" type="line"/>
      <point x="397" y="350" type="line"/>
      <point x="182" y="350" type="line"/>
      <point x="174" y="173" type="line"/>
      <point x="206" y="163" type="line"/>
      <point x="233" y="173"/>
      <point x="256" y="178"/>
      <point x="282" y="178" type="curve" smooth="yes"/>
      <point x="333" y="178"/>
      <point x="364" y="150"/>
      <point x="364" y="109" type="curve" smooth="yes"/>
      <point x="364" y="67"/>
      <point x="330" y="37"/>
      <point x="280" y="37" type="curve" smooth="yes"/>
      <point x="249" y="37"/>
      <point x="220" y="48"/>
      <point x="182" y="72" type="curve"/>
      <point x="157" y="32" type="line"/>
      <point x="197" y="6"/>
      <point x="234" y="-5"/>
    </contour>
  </outline>
</glyph>
<glyph name="uni2089" format="2">
  <advance width="600"/>
  <unicode hex="2089"/>
  <outline>
    <contour>
      <point x="302" y="355" type="curve" smooth="yes"/>
      <point x="229" y="355"/>
      <point x="176" y="306"/>
      <point x="176" y="240" type="curve" smooth="yes"/>
      <point x="176" y="178"/>
      <point x="225" y="135"/>
      <point x="294" y="135" type="curve" smooth="yes"/>
      <point x="335" y="135"/>
      <point x="374" y="153"/>
      <point x="398" y="182" type="curve"/>
      <point x="398" y="94"/>
      <point x="356" y="40"/>
      <point x="285" y="40" type="curve" smooth="yes"/>
      <point x="265" y="40"/>
      <point x="238" y="48"/>
      <point x="214" y="60" type="curve"/>
      <point x="193" y="17" type="line"/>
      <point x="221" y="2"/>
      <point x="249" y="-5"/>
      <point x="280" y="-5" type="curve" smooth="yes"/>
      <point x="382" y="-5"/>
      <point x="449" y="70"/>
      <point x="449" y="185" type="curve" smooth="yes"/>
      <point x="449" y="286"/>
      <point x="389" y="355"/>
    </contour>
    <contour>
      <point x="308" y="174" type="curve" smooth="yes"/>
      <point x="260" y="174"/>
      <point x="227" y="202"/>
      <point x="227" y="241" type="curve" smooth="yes"/>
      <point x="227" y="281"/>
      <point x="258" y="311"/>
      <point x="301" y="311" type="curve" smooth="yes"/>
      <point x="350" y="311"/>
      <point x="386" y="274"/>
      <point x="396" y="217" type="curve"/>
      <point x="373" y="189"/>
      <point x="341" y="174"/>
    </contour>
  </outline>
</glyph>
<glyph name="Euro" format="2">
  <advance width="600"/>
  <unicode hex="20AC"/>
  <outline>
    <contour>
      <point x="356" y="-11" type="curve" smooth="yes"/>
      <point x="459" y="-11"/>
      <point x="539" y="49"/>
      <point x="580" y="152" type="curve"/>
      <point x="511" y="183" type="line"/>
      <point x="479" y="103"/>
      <point x="422" y="59"/>
      <point x="356" y="59" type="curve" smooth="yes"/>
      <point x="275" y="59"/>
      <point x="209" y="130"/>
      <point x="187" y="256" type="curve"/>
      <point x="368" y="256" type="line"/>
      <point x="386" y="310" type="line"/>
      <point x="180" y="310" type="line"/>
      <point x="179" y="323"/>
      <point x="179" y="336"/>
      <point x="179" y="350" type="curve" smooth="yes"/>
      <point x="179" y="364"/>
      <point x="179" y="377"/>
      <point x="180" y="390" type="curve"/>
      <point x="416" y="390" type="line"/>
      <point x="435" y="444" type="line"/>
      <point x="187" y="444" type="line"/>
      <point x="209" y="570"/>
      <point x="275" y="641"/>
      <point x="356" y="641" type="curve" smooth="yes"/>
      <point x="422" y="641"/>
      <point x="479" y="597"/>
      <point x="511" y="517" type="curve"/>
      <point x="580" y="548" type="line"/>
      <point x="539" y="651"/>
      <point x="459" y="711"/>
      <point x="356" y="711" type="curve" smooth="yes"/>
      <point x="240" y="711"/>
      <point x="136" y="617"/>
      <point x="108" y="444" type="curve"/>
      <point x="28" y="444" type="line"/>
      <point x="28" y="390" type="line"/>
      <point x="102" y="390" type="line"/>
      <point x="101" y="377"/>
      <point x="101" y="364"/>
      <point x="101" y="350" type="curve" smooth="yes"/>
      <point x="101" y="336"/>
      <point x="101" y="323"/>
      <point x="102" y="310" type="curve"/>
      <point x="28" y="310" type="line"/>
      <point x="28" y="256" type="line"/>
      <point x="108" y="256" type="line"/>
      <point x="136" y="83"/>
      <point x="240" y="-11"/>
    </contour>
  </outline>
</glyph>
<glyph name="trademark" format="2">
  <advance width="600"/>
  <unicode hex="2122"/>
  <outline>
    <contour>
      <point x="286" y="421" type="line"/>
      <point x="325" y="421" type="line"/>
      <point x="325" y="643" type="line"/>
      <point x="422" y="440" type="line"/>
      <point x="519" y="645" type="line"/>
      <point x="519" y="421" type="line"/>
      <point x="558" y="421" type="line"/>
      <point x="558" y="700" type="line"/>
      <point x="505" y="700" type="line"/>
      <point x="422" y="519" type="line"/>
      <point x="339" y="700" type="line"/>
      <point x="286" y="700" type="line"/>
    </contour>
    <contour>
      <point x="123" y="421" type="line"/>
      <point x="165" y="421" type="line"/>
      <point x="165" y="662" type="line"/>
      <point x="249" y="662" type="line"/>
      <point x="249" y="700" type="line"/>
      <point x="40" y="700" type="line"/>
      <point x="40" y="662" type="line"/>
      <point x="123" y="662" type="line"/>
    </contour>
  </outline>
</glyph>
<glyph name="fl" format="2">
  <advance width="600"/>
  <unicode hex="FB02"/>
  <outline>
    <contour>
      <point x="132" y="0" type="line"/>
      <point x="205" y="0" type="line"/>
      <point x="205" y="428" type="line"/>
      <point x="344" y="428" type="line"/>
      <point x="344" y="488" type="line"/>
      <point x="205" y="488" type="line"/>
      <point x="205" y="586" type="line" smooth="yes"/>
      <point x="205" y="644"/>
      <point x="229" y="671"/>
      <point x="285" y="671" type="curve" smooth="yes"/>
      <point x="307" y="671"/>
      <point x="322" y="668"/>
      <point x="344" y="662" type="curve"/>
      <point x="344" y="728" type="line"/>
      <point x="326" y="734"/>
      <point x="305" y="737"/>
      <point x="278" y="737" type="curve" smooth="yes"/>
      <point x="184" y="737"/>
      <point x="132" y="683"/>
      <point x="132" y="587" type="curve" smooth="yes"/>
      <point x="132" y="488" type="line"/>
      <point x="23" y="488" type="line"/>
      <point x="23" y="428" type="line"/>
      <point x="132" y="428" type="line"/>
    </contour>
    <contour>
      <point x="438" y="0" type="line"/>
      <point x="511" y="0" type="line"/>
      <point x="511" y="737" type="line"/>
      <point x="438" y="722" type="line"/>
    </contour>
  </outline>
</glyph>
<glyph name="acutecomb" format="2">
  <anchor x="300" y="488" name="_top"/>
  <outline>
    <contour>
      <point x="231" y="604" type="line"/>
      <point x="298" y="604" type="line"/>
      <point x="442" y="726" type="line"/>
      <point x="343" y="726" type="line"/>
    </contour>
  </outline>
</glyph>
<glyph name="aogonek.school" format="2">
  <advance width="600"/>
  <outline>
    <contour>
      <point x="280" y="-7" type="curve" smooth="yes"/>
      <point x="344" y="-7"/>
      <point x="399" y="18"/>
      <point x="436" y="65" type="curve"/>
      <point x="436" y="0" type="line"/>
      <point x="454" y="0" type="line"/>
      <point x="384" y="-50"/>
      <point x="355" y="-91"/>
      <point x="355" y="-140" type="curve" smooth="yes"/>
      <point x="355" y="-195"/>
      <point x="397" y="-231"/>
      <point x="461" y="-231" type="curve" smooth="yes"/>
      <point x="488" y="-231"/>
      <point x="515" y="-224"/>
      <point x="534" y="-212" type="curve"/>
      <point x="520" y="-173" type="line"/>
      <point x="508" y="-181"/>
      <point x="489" y="-185"/>
      <point x="472" y="-185" type="curve" smooth="yes"/>
      <point x="430" y="-185"/>
      <point x="405" y="-164"/>
      <point x="405" y="-128" type="curve" smooth="yes"/>
      <point x="405" y="-87"/>
      <point x="437" y="-47"/>
      <point x="509" y="0" type="curve"/>
      <point x="509" y="488" type="line"/>
      <point x="436" y="488" type="line"/>
      <point x="436" y="426" type="line"/>
      <point x="397" y="470"/>
      <point x="344" y="494"/>
      <point x="284" y="494" type="curve" smooth="yes"/>
      <point x="155" y="494"/>
      <point x="55" y="384"/>
      <point x="55" y="243" type="curve" smooth="yes"/>
      <point x="55" y="103"/>
      <point x="153" y="-7"/>
    </contour>
    <contour>
      <point x="298" y="57" type="curve" smooth="yes"/>
      <point x="200" y="57"/>
      <point x="127" y="137"/>
      <point x="127" y="244" type="curve" smooth="yes"/>
      <point x="127" y="351"/>
      <point x="200" y="430"/>
      <point x="298" y="430" type="curve" smooth="yes"/>
      <point x="353" y="430"/>
      <point x="404" y="405"/>
      <point x="436" y="364" type="curve"/>
      <point x="436" y="122" type="line"/>
      <point x="405" y="80"/>
      <point x="355" y="57"/>
    </contour>
  </outline>
</glyph>
<glyph name="cordinal" format="2">
  <advance width="600"/>
  <outline>
    <contour>
      <point x="338" y="317" type="curve" smooth="yes"/>
      <point x="394" y="317"/>
      <point x="449" y="339"/>
      <point x="488" y="377" type="curve"/>
      <point x="449" y="421" type="line"/>
      <point x="420" y="390"/>
      <point x="379" y="373"/>
      <point x="340" y="373" type="curve" smooth="yes"/>
      <point x="265" y="373"/>
      <point x="207" y="434"/>
      <point x="207" y="514" type="curve" smooth="yes"/>
      <point x="207" y="594"/>
      <point x="265" y="655"/>
      <point x="340" y="655" type="curve" smooth="yes"/>
      <point x="379" y="655"/>
      <point x="420" y="638"/>
      <point x="449" y="607" type="curve"/>
      <point x="488" y="651" type="line"/>
      <point x="449" y="689"/>
      <point x="394" y="711"/>
      <point x="338" y="711" type="curve" smooth="yes"/>
      <point x="230" y="711"/>
      <point x="145" y="625"/>
      <point x="145" y="514" type="curve" smooth="yes"/>
      <point x="145" y="403"/>
      <point x="230" y="317"/>
    </contour>
  </outline>
</glyph>
<glyph name="gravecomb" format="2">
  <anchor x="300" y="488" name="_top"/>
  <outline>
    <contour>
      <point x="316" y="604" type="line"/>
      <point x="387" y="604" type="line"/>
      <point x="275" y="726" type="line"/>
      <point x="172" y="726" type="line"/>
    </contour>
  </outline>
</glyph>
<glyph name="tildecomb" format="2">
  <anchor x="300" y="488" name="_top"/>
  <outline>
    <contour>
      <point x="180" y="600" type="line"/>
      <point x="192" y="647"/>
      <point x="205" y="664"/>
      <point x="231" y="664" type="curve"/>
      <point x="273" y="664"/>
      <point x="318" y="604"/>
      <point x="375" y="604" type="curve" smooth="yes"/>
      <point x="420" y="604"/>
      <point x="453" y="640"/>
      <point x="471" y="708" type="curve"/>
      <point x="420" y="718" type="line"/>
      <point x="407" y="670"/>
      <point x="396" y="654"/>
      <point x="374" y="654" type="curve"/>
      <point x="333" y="654"/>
      <point x="287" y="714"/>
      <point x="229" y="714" type="curve" smooth="yes"/>
      <point x="181" y="714"/>
      <point x="147" y="678"/>
      <point x="129" y="610" type="curve"/>
    </contour>
  </outline>
</glyph>
<glyph name="uni0302" format="2">
  <anchor x="300" y="488" name="_top"/>
  <outline>
    <contour>
      <point x="147" y="599" type="line"/>
      <point x="206" y="599" type="line"/>
      <point x="299" y="683" type="line"/>
      <point x="393" y="599" type="line"/>
      <point x="453" y="599" type="line"/>
      <point x="339" y="726" type="line"/>
      <point x="261" y="726" type="line"/>
    </contour>
  </outline>
</glyph>
<glyph name="uni0304" format="2">
  <anchor x="300" y="488" name="_top"/>
  <outline>
    <contour>
      <point x="164" y="631" type="line"/>
      <point x="437" y="631" type="line"/>
      <point x="437" y="683" type="line"/>
      <point x="164" y="683" type="line"/>
    </contour>
  </outline>
</glyph>
<glyph name="uni0307" format="2">
  <anchor x="300" y="488" name="_top"/>
  <outline>
    <contour>
      <point x="300" y="604" type="curve" smooth="yes"/>
      <point x="335" y="604"/>
      <point x="363" y="632"/>
      <point x="363" y="666" type="curve" smooth="yes"/>
      <point x="363" y="700"/>
      <point x="335" y="728"/>
      <point x="300" y="728" type="curve" smooth="yes"/>
      <point x="265" y="728"/>
      <point x="237" y="700"/>
      <point x="237" y="666" type="curve" smooth="yes"/>
      <point x="237" y="632"/>
      <point x="265" y="604"/>
    </contour>
  </outline>
</glyph>
<glyph name="uni0308" format="2">
  <anchor x="300" y="488" name="_top"/>
  <outline>
    <contour>
      <point x="198" y="604" type="curve" smooth="yes"/>
      <point x="233" y="604"/>
      <point x="261" y="632"/>
      <point x="261" y="666" type="curve" smooth="yes"/>
      <point x="261" y="700"/>
      <point x="233" y="728"/>
      <point x="198" y="728" type="curve" smooth="yes"/>
      <point x="163" y="728"/>
      <point x="135" y="700"/>
      <point x="135" y="666" type="curve" smooth="yes"/>
      <point x="135" y="632"/>
      <point x="163" y="604"/>
    </contour>
    <contour>
      <point x="402" y="604" type="curve" smooth="yes"/>
      <point x="437" y="604"/>
      <point x="465" y="632"/>
      <point x="465" y="666" type="curve" smooth="yes"/>
      <point x="465" y="700"/>
      <point x="437" y="728"/>
      <point x="402" y="728" type="curve" smooth="yes"/>
      <point x="367" y="728"/>
      <point x="339" y="700"/>
      <point x="339" y="666" type="curve" smooth="yes"/>
      <point x="339" y="632"/>
      <point x="367" y="604"/>
    </contour>
  </outline>
</glyph>
